<?xml version="1.0" encoding="UTF-8"?>
<svg width="40px" height="43px" viewBox="0 0 40 43" version="1.1" xmlns="http://www.w3.org/2000/svg" xmlns:xlink="http://www.w3.org/1999/xlink">
    <!-- Generator: Sketch 52.2 (67145) - http://www.bohemiancoding.com/sketch -->
    <title>文章 (3)</title>
    <desc>Created with Sketch.</desc>
    <g id="总览" stroke="none" stroke-width="1" fill="none" fill-rule="evenodd" opacity="0.3">
        <g id="用户管理-用户主页" transform="translate(-337.000000, -1241.000000)" fill="#7A7A7A">
            <g id="文章-(3)" transform="translate(337.000000, 1241.000000)">
                <path d="M35.2939645,2.64852071 L4.7060355,2.64852071 C3.56160947,2.64852071 2.64757396,3.56217751 2.64757396,4.69500592 L2.64757396,37.671858 C2.64757396,38.8006154 3.56771598,39.7183432 4.7060355,39.7183432 L35.2939645,39.7183432 C36.4383905,39.7183432 37.352426,38.8046864 37.352426,37.671858 L37.352426,4.69756213 C37.352426,3.56530178 36.4338935,2.64852071 35.2939645,2.64852071 Z M35.2939645,0 C37.8945799,0 40,2.10106509 40,4.69756213 L40,37.671858 C40,40.2631953 37.9047574,42.3668639 35.2939645,42.3668639 L4.7060355,42.3668639 C2.10792899,42.3668639 0,40.2657988 0,37.671858 L0,4.69500592 C0,2.10366864 2.0952426,0 4.7060355,0 L35.2939645,0 Z M20.4622485,36.748213 L6.13846154,36.748213 L6.13846154,34.3955976 L20.4622485,34.3955976 L20.4622485,36.748213 Z M28.6451124,30.6076213 L6.1384142,30.6076213 L6.1384142,28.2550059 L28.6451124,28.2550059 L28.6450651,30.607574 L28.6451124,30.6076213 Z M28.6451124,24.4695385 L6.1384142,24.4695385 L6.1384142,22.1144142 L28.6451124,22.1144142 L28.6451124,24.4695385 Z" id="形状" fill-rule="nonzero"></path>
                <path d="M6.684,9.032 L11.436,9.032 C11.136,8.48 10.764,7.964 10.332,7.472 L11.592,7.016 C12.024,7.58 12.42,8.252 12.78,9.032 L17.316,9.032 L17.316,10.28 L15.504,10.28 C14.928,12.08 14.088,13.58 12.984,14.792 C14.22,15.776 15.756,16.592 17.58,17.264 L16.884,18.332 C14.964,17.612 13.368,16.724 12.096,15.668 C10.752,16.856 9.096,17.732 7.14,18.284 L6.468,17.18 C8.376,16.688 9.96,15.92 11.208,14.864 C9.912,13.544 9.012,12.02 8.508,10.28 L6.684,10.28 L6.684,9.032 Z M9.708,10.28 C10.2,11.696 10.992,12.932 12.096,14.012 C13.032,12.98 13.74,11.732 14.208,10.28 L9.708,10.28 Z M23.388,15.188 L20.064,15.188 L20.064,11.252 L27.96,11.252 L27.96,15.188 L24.66,15.188 L24.66,15.716 L29.328,15.716 L29.328,16.82 L24.66,16.82 L24.66,18.176 L23.388,18.176 L23.388,16.82 L18.672,16.82 L18.672,15.716 L23.388,15.716 L23.388,15.188 Z M21.3,13.688 L21.3,14.18 L26.724,14.18 L26.724,13.688 L21.3,13.688 Z M26.724,12.752 L26.724,12.26 L21.3,12.26 L21.3,12.752 L26.724,12.752 Z M21.18,8.948 L19.452,8.948 L19.452,7.88 L23.208,7.88 C23.124,7.664 23.04,7.46 22.944,7.268 L24.3,7.052 C24.396,7.304 24.492,7.58 24.576,7.88 L28.548,7.88 L28.548,8.948 L26.88,8.948 L26.592,9.752 L29.172,9.752 L29.172,10.808 L18.84,10.808 L18.84,9.752 L21.516,9.752 L21.18,8.948 Z M22.776,9.752 L25.284,9.752 L25.572,8.948 L22.44,8.948 L22.776,9.752 Z" id="文章"></path>
            </g>
        </g>
    </g>
</svg>