<?xml version="1.0" encoding="UTF-8"?>
<svg width="100px" height="100px" viewBox="0 0 100 100" version="1.1" xmlns="http://www.w3.org/2000/svg" xmlns:xlink="http://www.w3.org/1999/xlink">
    <!-- Generator: Sketch 52.2 (67145) - http://www.bohemiancoding.com/sketch -->
    <title>目录</title>
    <desc>Created with Sketch.</desc>
    <g id="总览" stroke="none" stroke-width="1" fill="none" fill-rule="evenodd" opacity="0.196056548">
        <g id="目录" fill="#0091FF" fill-rule="nonzero">
            <path d="M39.5755627,66.3429796 C37.9292605,66.3429796 36.2829582,67.9892819 36.2829582,69.6355841 C36.2829582,71.2818864 37.9292605,72.9281886 39.5755627,72.9281886 L87.7942122,72.9281886 C89.4405145,72.9281886 91.0868167,71.2818864 91.0868167,69.6355841 C91.0868167,67.9892819 89.9892819,66.3429796 87.7942122,66.3429796 L39.5755627,66.3429796 Z M39.5755627,87.3429796 C37.9292605,87.3429796 36.2829582,88.9892819 36.2829582,90.6355841 C36.2829582,92.2818864 37.9292605,93.9281886 39.5755627,93.9281886 L87.7942122,93.9281886 C89.4405145,93.9281886 91.0868167,92.2818864 91.0868167,90.6355841 C91.0868167,88.9892819 89.9892819,87.3429796 87.7942122,87.3429796 L39.5755627,87.3429796 Z M40.1243301,13.6613076 L96.0257235,13.6613076 C97.6720257,13.6613076 99.318328,12.0150054 99.318328,10.3687031 C99.318328,8.72240086 97.6720257,7.07609861 96.0257235,7.07609861 L40.1243301,7.07609861 C38.4780279,7.07609861 36.8317256,8.72240086 36.8317256,10.3687031 C36.8317256,12.0150054 37.9292605,13.6613076 40.1243301,13.6613076 Z M88.3429796,33.4169346 C89.9892819,33.4169346 91.6355841,31.7706324 91.6355841,30.1243301 C91.6355841,28.4780279 89.9892819,26.8317256 88.3429796,26.8317256 L40.1243301,26.8317256 C38.4780279,26.8317256 36.8317256,28.4780279 36.8317256,30.1243301 C36.8317256,31.7706324 37.9292605,33.4169346 40.1243301,33.4169346 L88.3429796,33.4169346 Z M95.4769561,46.5873526 L39.5755627,46.5873526 C37.9292605,46.5873526 36.2829582,48.2336549 36.2829582,49.8799571 C36.2829582,51.5262594 37.9292605,53.1725616 40.1243301,53.1725616 L96.0257235,53.1725616 C97.6720257,53.1725616 99.318328,51.5262594 99.318328,49.8799571 C99.318328,48.2336549 97.6720257,46.5873526 95.4769561,46.5873526 Z M29.1489818,33.5391211 C29.1489818,26.9539121 24.210075,20.9174705 17.624866,19.8199357 L17.624866,3.35691318 C17.624866,1.71061093 15.9785638,0.0643086817 14.3322615,0.0643086817 C12.6859593,0.0643086817 11.5884244,1.71061093 11.5884244,3.35691318 L11.5884244,19.8199357 C5.00321543,21.4662379 0.613076099,26.9539121 0.613076099,33.5391211 C0.613076099,40.1243301 5.00321543,45.6120043 11.039657,47.2583065 L11.039657,52.7459807 C5.00321543,53.8435155 0.0643086817,59.8799571 0.0643086817,66.4651661 C0.0643086817,73.0503751 5.00321543,79.0868167 11.5884244,80.1843516 L11.5884244,96.6473741 C11.5884244,98.2936763 13.2347267,99.9399786 14.8810289,99.9399786 C16.5273312,99.9399786 18.1736334,98.2936763 18.1736334,96.6473741 L18.1736334,80.1843516 C24.210075,78.5380493 28.6002144,73.0503751 28.6002144,66.4651661 C28.6002144,59.8799571 24.210075,54.392283 18.1736334,52.7459807 L18.1736334,47.2583065 C24.210075,46.1607717 29.1489818,40.6730975 29.1489818,33.5391211 Z M7.1982851,33.5391211 C7.1982851,29.1489818 10.4908896,25.8563773 14.8810289,25.8563773 C19.2711683,25.8563773 22.5637728,29.1489818 22.5637728,33.5391211 C22.5637728,37.9292605 19.2711683,41.221865 14.8810289,41.221865 C10.4908896,41.221865 7.1982851,37.9292605 7.1982851,33.5391211 Z M22.0150054,66.4651661 C22.0150054,70.8553055 18.7224009,74.14791 14.3322615,74.14791 C9.94212219,74.14791 6.64951768,70.8553055 6.64951768,66.4651661 C6.64951768,62.0750268 9.94212219,58.7824223 14.3322615,58.7824223 C18.7224009,58.7824223 22.0150054,62.0750268 22.0150054,66.4651661 Z" id="形状"></path>
        </g>
    </g>
</svg>