<?xml version="1.0" encoding="UTF-8"?>
<svg width="100px" height="100px" viewBox="0 0 100 100" version="1.1" xmlns="http://www.w3.org/2000/svg" xmlns:xlink="http://www.w3.org/1999/xlink">
    <!-- Generator: Sketch 52.2 (67145) - http://www.bohemiancoding.com/sketch -->
    <title>频道</title>
    <desc>Created with Sketch.</desc>
    <g id="总览" stroke="none" stroke-width="1" fill="none" fill-rule="evenodd" opacity="0.2">
        <g id="总览-用户" transform="translate(-768.000000, -729.000000)" fill-rule="nonzero">
            <g id="统计" transform="translate(259.000000, 620.000000)">
                <g id="频道" transform="translate(420.000000, 0.000000)">
                    <g transform="translate(89.000000, 109.000000)" id="路径">
                        <path d="M81.4057971,0.0724637681 L74.7681159,0.0724637681 C64.4202899,0.0724637681 56.2608696,8.27536232 56.2608696,18.5797101 L56.2608696,43.7246377 L81.4057971,43.7246377 C91.7536232,43.7246377 99.9130435,35.5217391 99.9130435,25.2173913 L99.9130435,18.5797101 C99.8985507,8.28985507 91.6956522,0.0724637681 81.4057971,0.0724637681 Z" fill="#0091FF"></path>
                        <path d="M59.2608696,59.2173913 L59.2608696,81.3623188 C59.2608696,90.0371328 66.1044419,96.8695652 74.7681159,96.8695652 L81.4057971,96.8695652 C90.080611,96.8695652 96.9130435,90.0259929 96.9130435,81.3623188 L96.9130464,74.7288571 C96.9008804,66.078771 90.0395007,59.2173913 81.4057971,59.2173913 L59.2608696,59.2173913 Z" stroke="#0091FF" stroke-width="6"></path>
                        <path d="M41.0289855,59.2607149 L18.871453,59.2608431 C10.193774,59.2243822 3.33333333,66.0736738 3.33333333,74.7681159 L3.33333333,81.4057971 C3.33333333,90.0647201 10.2188758,96.9130435 18.884058,96.9130435 L25.5217391,96.9130435 C34.196553,96.9130435 41.0289855,90.0694712 41.0289855,81.4057971 L41.0289855,59.2607149 Z" stroke="#0091FF" stroke-width="6"></path>
                        <path d="M40.7247924,40.7246377 L40.7246645,18.5670342 C40.7611317,9.93645328 33.9008645,3.07246377 25.2173913,3.07246377 L18.5797101,3.07246377 C9.94132418,3.07246377 3.07246377,9.9375992 3.07246377,18.5797101 L3.07246377,25.2173913 C3.07246377,33.8922052 9.91603606,40.7246377 18.5797101,40.7246377 L40.7247924,40.7246377 Z" stroke="#0091FF" stroke-width="6"></path>
                    </g>
                </g>
            </g>
        </g>
    </g>
</svg>