<?xml version="1.0" encoding="UTF-8"?>
<svg width="101px" height="102px" viewBox="0 0 101 102" version="1.1" xmlns="http://www.w3.org/2000/svg" xmlns:xlink="http://www.w3.org/1999/xlink">
    <!-- Generator: Sketch 52.2 (67145) - http://www.bohemiancoding.com/sketch -->
    <title>树</title>
    <desc>Created with Sketch.</desc>
    <g id="总览" stroke="none" stroke-width="1" fill="none" fill-rule="evenodd" opacity="0.2">
        <g id="总览-用户" transform="translate(-1187.000000, -728.000000)" fill="#0091FF">
            <g id="统计" transform="translate(259.000000, 620.000000)">
                <g id="家庭树" transform="translate(840.000000, 0.000000)">
                    <g id="树" transform="translate(89.000000, 109.000000)">
                        <path d="M25,64.0684386 L25,74.7867771 L23.2941749,74.7515352 C14.904259,74.0515352 7.96644385,70.9515352 3.9328304,66.1015352 C0.490813593,61.9015352 -0.746161197,56.4015352 0.437032081,50.3515352 C2.48072956,39.9515352 5.81518334,30.6515352 9.9025783,24.1515352 C16.3025783,13.9015352 23.401738,12.1515352 28.1882926,12.5515352 C33.0286287,12.9015352 37.3849312,15.7515352 41.0958556,21.0015352 C48.9278158,31.097113 36.7322622,31.097113 37.7387914,50.3515352 C38.0218203,55.7657424 37.2773682,59.9537999 45.0439147,70.4630534 C42.6237466,72.7630534 41.0420741,72.3015352 37.2773682,73.4515352 C35.3601171,73.9896316 33.345539,74.3920025 31.25,74.6282174 L31.25,44.25 C31.25,43.9738576 31.0261424,43.75 30.75,43.75 L25.5,43.75 C25.2238576,43.75 25,43.9738576 25,44.25 L25,57.2269619 L14.452374,52.5308562 C14.2001054,52.418539 13.9045502,52.531992 13.792233,52.7842606 L11.6568656,57.5803743 C11.5445484,57.8326429 11.6580014,58.1281981 11.91027,58.2405153 L25,64.0684386 Z" id="合并形状" stroke="#C9C9C9" stroke-width="0.2" fill-rule="nonzero"></path>
                        <path d="M25,75 L31.25,75 L31.25,96.875 C31.25,98.6008898 29.8508898,100 28.125,100 L28.125,100 C26.3991102,100 25,98.6008898 25,96.875 L25,75 Z" id="矩形"></path>
                        <path d="M89.7983193,46.4 C89.7983193,49.95 93.5630252,55.25 99.0487395,59.5 C99.8016807,60.05 100.070588,60.95 99.8554622,61.75 C98.1882353,68.3 93.5092437,73.45 86.3563025,76.65 C81.6235294,78.75 75.9226891,79.9 69.8991597,80.05 L69.8991597,97.75 C69.8991597,99 68.8235294,100 67.4789916,100 C66.1344538,100 65.0588235,99 65.0588235,97.75 L65.0588235,79.95 L64.6823529,79.95 C57.6907563,79.4 51.5596639,77.65 46.6655462,74.8 C42.5791178,71.9774034 39.3663194,69.873725 36.3742405,64.1567654 C33.0132467,57.6694065 37.4269006,38.55 41.1260504,27.65 C42.9546218,22.85 45.1058824,18.55 47.3647059,14.9 C53.8722689,4.5 61.9394958,-0.55 70.5445378,0.05 C87.2168067,1.3 94.9613445,25.6 97.5966387,36.05 C97.8117647,37 97.3815126,38 96.4672269,38.55 C92.1647059,40.95 89.7983193,43.7 89.7983193,46.4 Z M69.9529412,75.55 C80.7630252,75.3 91.5193277,71.2 94.692437,62.05 C88.5613445,57.05 84.9042017,51.15 84.9042017,46.5 C84.9042017,42.45 87.4857143,38.75 92.3798319,35.6 C87.3781513,16.85 79.2033613,5.3 70.1142857,4.6 L69.0386555,4.6 C53.9798319,4.6 43.9764706,28.65 39.8890756,49.65 C38.6521008,56.2 39.8352941,61.8 43.3848739,66.15 C44.5680672,67.55 45.9663866,68.8 47.5798319,69.9 C47.6336134,69.9 47.6336134,69.95 47.687395,69.95 L47.7411765,70 C52.1512605,73 58.0672269,74.9 65.0588235,75.4 L65.0588235,66.3 C64.6285714,66.2 64.1983193,65.95 63.9294118,65.6 L52.9042017,53.3 C52.0436975,52.35 52.205042,50.95 53.2806723,50.1 C54.302521,49.3 55.8084034,49.45 56.7226891,50.45 L65.112605,59.8 L65.112605,26.7 C65.112605,25.45 66.1882353,24.45 67.5327731,24.45 C68.8773109,24.45 69.9529412,25.45 69.9529412,26.7 L69.9529412,42.75 L79.3647059,32.85 C80.2789916,31.95 81.7848739,31.8 82.8067227,32.65 C83.7747899,33.5 83.9361345,34.9 83.0218487,35.85 L70.7596639,48.75 C70.5445378,49 70.2756303,49.15 69.9529412,49.3 L69.9529412,75.55 Z" id="合并形状" stroke="#C9C9C9" stroke-width="0.2" fill-rule="nonzero"></path>
                    </g>
                </g>
            </g>
        </g>
    </g>
</svg>