<?xml version="1.0" encoding="UTF-8"?>
<svg width="100px" height="100px" viewBox="0 0 100 100" version="1.1" xmlns="http://www.w3.org/2000/svg" xmlns:xlink="http://www.w3.org/1999/xlink">
    <!-- Generator: Sketch 52.2 (67145) - http://www.bohemiancoding.com/sketch -->
    <title>文章 (2)</title>
    <desc>Created with Sketch.</desc>
    <g id="总览" stroke="none" stroke-width="1" fill="none" fill-rule="evenodd" opacity="0.2">
        <g id="总览-用户" transform="translate(-978.000000, -729.000000)" fill="#0091FF" fill-rule="nonzero">
            <g id="统计" transform="translate(259.000000, 620.000000)">
                <g id="文章" transform="translate(630.000000, 0.000000)">
                    <g id="文章-(2)" transform="translate(89.000000, 109.000000)">
                        <path d="M90.6430622,0.0248803828 L21.8047847,0.0248803828 C16.6602871,0.0248803828 12.4956938,4.18947368 12.4956938,9.33397129 L12.4956938,15.7033493 L9.31100478,15.7033493 C4.16650718,15.7033493 0.0019138756,19.8679426 0.0019138756,25.0124402 L0.0019138756,87.4813397 C0.0019138756,94.3406699 5.63636364,99.9751196 12.4956938,99.9751196 L87.4583732,99.9751196 C94.3177033,99.9751196 99.9521531,94.3406699 99.9521531,87.4813397 L99.9521531,9.33397129 C99.9521531,4.18947368 95.7875598,0.0248803828 90.6430622,0.0248803828 Z M93.8277512,87.4813397 C93.8277512,90.9110048 91.1330144,93.8507177 87.4583732,93.8507177 L12.4956938,93.8507177 C9.06602871,93.8507177 6.12631579,91.1559809 6.12631579,87.4813397 L6.12631579,25.0124402 C6.12631579,23.2976077 7.59617225,21.8277512 9.31100478,21.8277512 L12.4956938,21.8277512 L12.4956938,84.2966507 C12.4956938,86.0114833 13.9655502,87.4813397 15.6803828,87.4813397 C17.3952153,87.4813397 18.8650718,86.0114833 18.8650718,84.2966507 L18.8650718,9.33397129 C18.8650718,7.61913876 20.3349282,6.1492823 22.0497608,6.1492823 L90.8880383,6.1492823 C92.6028708,6.1492823 94.0727273,7.61913876 94.0727273,9.33397129 L94.0727273,87.4813397 L93.8277512,87.4813397 Z" id="形状"></path>
                        <path d="M61.0009569,40.6909091 L85.9885167,40.6909091 C86.9684211,40.6909091 87.4583732,39.9559809 87.4583732,39.2210526 C87.4583732,38.2411483 86.723445,37.7511962 85.9885167,37.7511962 L61.0009569,37.7511962 C60.0210526,37.7511962 59.5311005,38.4861244 59.5311005,39.2210526 C59.5311005,39.9559809 60.0210526,40.6909091 61.0009569,40.6909091 Z M61.0009569,31.1368421 L85.9885167,31.1368421 C86.9684211,31.1368421 87.4583732,30.4019139 87.4583732,29.6669856 C87.4583732,28.6870813 86.723445,28.1971292 85.9885167,28.1971292 L61.0009569,28.1971292 C60.0210526,28.1971292 59.5311005,28.9320574 59.5311005,29.6669856 C59.5311005,30.64689 60.0210526,31.1368421 61.0009569,31.1368421 Z M61.0009569,21.8277512 L85.9885167,21.8277512 C86.9684211,21.8277512 87.4583732,21.092823 87.4583732,20.3578947 C87.4583732,19.3779904 86.723445,18.8880383 85.9885167,18.8880383 L61.0009569,18.8880383 C60.0210526,18.8880383 59.5311005,19.6229665 59.5311005,20.3578947 C59.5311005,21.092823 60.0210526,21.8277512 61.0009569,21.8277512 Z M51.691866,84.2966507 L26.7043062,84.2966507 C25.7244019,84.2966507 25.2344498,85.0315789 25.2344498,85.7665072 C25.2344498,86.7464115 25.969378,87.2363636 26.7043062,87.2363636 L51.691866,87.2363636 C52.6717703,87.2363636 53.1617225,86.5014354 53.1617225,85.7665072 C53.1617225,85.0315789 52.4267943,84.2966507 51.691866,84.2966507 Z M51.691866,74.9875598 L26.7043062,74.9875598 C25.7244019,74.9875598 25.2344498,75.722488 25.2344498,76.4574163 C25.2344498,77.4373206 25.969378,77.9272727 26.7043062,77.9272727 L51.691866,77.9272727 C52.6717703,77.9272727 53.1617225,77.1923445 53.1617225,76.4574163 C53.1617225,75.722488 52.4267943,74.9875598 51.691866,74.9875598 Z M51.691866,65.6784689 L26.7043062,65.6784689 C25.7244019,65.6784689 25.2344498,66.4133971 25.2344498,67.1483254 C25.2344498,68.1282297 25.969378,68.6181818 26.7043062,68.6181818 L51.691866,68.6181818 C52.6717703,68.6181818 53.1617225,67.8832536 53.1617225,67.1483254 C53.1617225,66.4133971 52.4267943,65.6784689 51.691866,65.6784689 Z M85.9885167,84.2966507 L61.0009569,84.2966507 C60.0210526,84.2966507 59.5311005,85.0315789 59.5311005,85.7665072 C59.5311005,86.7464115 60.2660287,87.2363636 61.0009569,87.2363636 L85.9885167,87.2363636 C86.9684211,87.2363636 87.4583732,86.5014354 87.4583732,85.7665072 C87.4583732,85.0315789 86.9684211,84.2966507 85.9885167,84.2966507 Z M85.9885167,74.9875598 L61.0009569,74.9875598 C60.0210526,74.9875598 59.5311005,75.722488 59.5311005,76.4574163 C59.5311005,77.4373206 60.2660287,77.9272727 61.0009569,77.9272727 L85.9885167,77.9272727 C86.9684211,77.9272727 87.4583732,77.1923445 87.4583732,76.4574163 C87.4583732,75.722488 86.9684211,74.9875598 85.9885167,74.9875598 Z M85.9885167,65.6784689 L61.0009569,65.6784689 C60.0210526,65.6784689 59.5311005,66.4133971 59.5311005,67.1483254 C59.5311005,68.1282297 60.2660287,68.6181818 61.0009569,68.6181818 L85.9885167,68.6181818 C86.9684211,68.6181818 87.4583732,67.8832536 87.4583732,67.1483254 C87.4583732,66.4133971 86.9684211,65.6784689 85.9885167,65.6784689 Z M85.9885167,46.815311 L26.7043062,46.815311 C25.7244019,46.815311 25.2344498,47.5502392 25.2344498,48.2851675 C25.2344498,49.2650718 25.969378,49.7550239 26.7043062,49.7550239 L85.9885167,49.7550239 C86.9684211,49.7550239 87.4583732,49.0200957 87.4583732,48.2851675 C87.4583732,47.5502392 86.9684211,46.815311 85.9885167,46.815311 Z M85.9885167,56.369378 L26.7043062,56.369378 C25.7244019,56.369378 25.2344498,57.1043062 25.2344498,57.8392344 C25.2344498,58.8191388 25.969378,59.3090909 26.7043062,59.3090909 L85.9885167,59.3090909 C86.9684211,59.3090909 87.4583732,58.5741627 87.4583732,57.8392344 C87.4583732,56.8593301 86.9684211,56.369378 85.9885167,56.369378 Z M28.1741627,40.6909091 L49.9770335,40.6909091 C51.691866,40.6909091 53.1617225,39.2210526 53.1617225,37.5062201 L53.1617225,15.7033493 C53.1617225,13.9885167 51.691866,12.5186603 49.9770335,12.5186603 L28.1741627,12.5186603 C26.4593301,12.5186603 24.9894737,13.9885167 24.9894737,15.7033493 L24.9894737,37.5062201 C24.9894737,39.2210526 26.4593301,40.6909091 28.1741627,40.6909091 Z" id="形状"></path>
                    </g>
                </g>
            </g>
        </g>
    </g>
</svg>