<?xml version="1.0" encoding="UTF-8"?>
<svg width="100px" height="100px" viewBox="0 0 100 100" version="1.1" xmlns="http://www.w3.org/2000/svg" xmlns:xlink="http://www.w3.org/1999/xlink">
    <!-- Generator: Sketch 52.2 (67145) - http://www.bohemiancoding.com/sketch -->
    <title>用户</title>
    <desc>Created with Sketch.</desc>
    <g id="总览" stroke="none" stroke-width="1" fill="none" fill-rule="evenodd" opacity="0.196544829">
        <g id="总览-用户" transform="translate(-348.000000, -729.000000)" fill="#0091FF">
            <g id="统计" transform="translate(259.000000, 620.000000)">
                <g id="用户">
                    <g transform="translate(89.000000, 109.000000)" id="路径">
                        <path d="M76.2962963,28.6471297 C76.2962963,20.9954149 73.2391578,13.801107 67.686993,8.39022584 C62.1354438,2.98004465 54.7532851,0 46.9012631,0 C39.0498567,0 31.6679033,2.98004475 26.1161489,8.39072584 C20.563984,13.801007 17.5063325,20.9953149 17.5063325,28.6470297 C17.5063325,34.5787187 19.351,40.2705041 22.8404456,45.1076766 C23.8193701,46.464097 25.7410997,46.7907018 27.1329377,45.8364875 C28.5247756,44.8828732 28.860011,43.0102451 27.8808812,41.6537248 C25.1247057,37.8330675 23.6683245,33.3356 23.6683245,28.6469296 C23.6683245,16.1620423 34.0904854,6.00498998 46.9011607,6.00498998 C59.7120413,6.00498998 70.1348178,16.1620423 70.1348178,28.6469296 C70.1348178,41.1322169 59.7120413,51.2892693 46.9011607,51.2892693 C40.571192,51.2892693 34.4284914,52.4978875 28.6440115,54.8824232 C23.0590106,57.1844577 18.0436125,60.4801071 13.7369599,64.6766701 C9.43071779,68.8738331 6.04973383,73.7615064 3.68697512,79.204488 C1.24007384,84.8418726 0,90.8281625 0,96.9971549 C0,98.6555798 1.3795244,100 3.08063671,100 C4.78246735,100 6.16199175,98.6555798 6.16199175,96.9971549 C6.16199175,75.1049266 24.4373033,57.2945593 46.9010578,57.2945593 C54.7530798,57.2945593 62.1346229,54.3145146 67.6867877,48.9037335 C73.2390553,43.4934524 76.2962963,36.2991444 76.2962963,28.6471297 Z"></path>
                        <path d="M52.5925926,65.9256298 C52.5925926,67.562192 53.9803279,68.8888889 55.6929491,68.8888889 L96.8995401,68.8888889 C98.611645,68.8888889 100,67.562192 100,65.9256298 C100,64.2895611 98.611645,62.962963 96.8995401,62.962963 L55.6929491,62.962963 C53.9804313,62.9628642 52.5925926,64.2895611 52.5925926,65.9256298 Z"></path>
                        <path d="M96.8995401,78.5185185 L55.6929491,78.5185185 C53.9803279,78.5185185 52.5925926,79.8452154 52.5925926,81.4817776 C52.5925926,83.117649 53.9803279,84.4444444 55.6929491,84.4444444 L96.8995401,84.4444444 C98.611645,84.4444444 100,83.1176489 100,81.4817776 C99.9998967,79.8452153 98.6115417,78.5185185 96.8995401,78.5185185 Z"></path>
                        <path d="M96.8995401,93.3333333 L55.6929491,93.3333333 C53.9803279,93.3333333 52.5925926,94.6600082 52.5925926,96.296543 C52.5925926,97.9325844 53.9803279,99.2592593 55.6929491,99.2592593 L96.8995401,99.2592593 C98.611645,99.2592593 100,97.9325844 100,96.296543 C99.9998967,94.6600082 98.6115417,93.3333333 96.8995401,93.3333333 Z"></path>
                    </g>
                </g>
            </g>
        </g>
    </g>
</svg>