<?xml version="1.0" encoding="UTF-8"?>
<svg width="100px" height="100px" viewBox="0 0 100 100" version="1.1" xmlns="http://www.w3.org/2000/svg" xmlns:xlink="http://www.w3.org/1999/xlink">
    <!-- Generator: Sketch 52.2 (67145) - http://www.bohemiancoding.com/sketch -->
    <title>书 (2)</title>
    <desc>Created with Sketch.</desc>
    <g id="总览" stroke="none" stroke-width="1" fill="none" fill-rule="evenodd" opacity="0.2">
        <g id="书-(2)" fill="#0091FF" fill-rule="nonzero">
            <path d="M96.7673378,11.6099071 L88.9821029,11.6099071 L88.9821029,8.56037152 L86.3310962,7.12074303 C85.8053691,6.82662539 73.2102908,0.0619195046 62.1923937,0.0619195046 C57.0357942,0.0619195046 52.9082774,1.53250774 49.8657718,4.44272446 C46.8232662,1.53250774 42.6957494,0.0619195046 37.5391499,0.0619195046 C26.5212528,0.0619195046 13.9261745,6.82662539 13.4004474,7.12074303 L10.7606264,8.56037152 L10.7606264,11.6099071 L3.13199105,11.6099071 C1.40939597,11.6099071 0,13.5448916 0,15.9442724 L0,95.6656347 C0,98.0495356 1.39821029,100 3.13199105,100 L96.7673378,100 C98.4899329,100 99.8993289,98.0650155 99.8993289,95.6656347 L99.8993289,15.9442724 C99.8881432,13.5448916 98.4899329,11.6099071 96.7673378,11.6099071 Z M84.8098434,12.4922601 L84.8098434,75.7585139 C78.3557047,72.6934985 61.196868,65.7585139 51.9463087,73.2352941 L51.9463087,9.52012384 C54.5525727,6.82662539 58.2326622,5.83591331 62.1923937,5.83591331 C72.5391499,5.82043344 84.8098434,12.4922601 84.8098434,12.4922601 Z M80.0782998,79.6904025 L52.5950783,79.6904025 C57.9530201,72.6625387 71.2416107,76.0371517 80.0782998,79.6904025 Z M37.5279642,5.82043344 C41.4876957,5.82043344 45.1677852,6.81114551 47.7740492,9.50464396 L47.7740492,73.2198142 C38.5123043,65.7430341 21.3646532,72.6780186 14.9105145,75.7430341 L14.9105145,12.4922601 C14.9105145,12.4922601 27.1700224,5.82043344 37.5279642,5.82043344 Z M47.114094,79.6904025 L19.6196868,79.6904025 C28.4675615,76.0371517 41.7561521,72.6470588 47.114094,79.6904025 Z M95.4525977,93.3312693 L4.44580028,93.3312693 L4.44580028,18.2631579 L10.9244249,18.2631579 L10.9244249,85.4643963 L88.7992065,85.4643963 L88.7992065,18.2631579 L95.4758999,18.2631579 L95.4758999,91.3312693 L95.4525977,93.3312693 Z" id="形状"></path>
        </g>
    </g>
</svg>