<?xml version="1.0" encoding="UTF-8"?>
<svg width="44px" height="44px" viewBox="0 0 44 44" version="1.1" xmlns="http://www.w3.org/2000/svg" xmlns:xlink="http://www.w3.org/1999/xlink">
    <!-- Generator: Sketch 52.2 (67145) - http://www.bohemiancoding.com/sketch -->
    <title>标题</title>
    <desc>Created with Sketch.</desc>
    <g id="总览" stroke="none" stroke-width="1" fill="none" fill-rule="evenodd">
        <g id="文章管理-发布图文-添加内容" transform="translate(-542.000000, -270.000000)" fill="#C1C1C1">
            <g id="标题" transform="translate(542.000000, 270.000000)">
                <path d="M39.8385876,44 L4.16141236,44 C1.86312777,44 0,42.4913611 0,40.6303608 L0,3.36963921 C0,1.50863886 1.86312777,3.3253787e-16 4.16141236,0 L39.8385876,0 C42.1368722,0 44,1.50863886 44,3.36963921 L44,40.6303608 C44,42.4913611 42.1368722,44 39.8385876,44 Z M3.28835979,1.83333333 C2.48477087,1.83333333 1.83333333,2.34672933 1.83333333,2.98003538 L1.83333333,41.0199646 C1.83333333,41.6532707 2.48477087,42.1666667 3.28835979,42.1666667 L40.7116402,42.1666667 C41.5152291,42.1666667 42.1666667,41.6532707 42.1666667,41.0199646 L42.1666667,2.98003538 C42.1666667,2.34672933 41.5152291,1.83333333 40.7116402,1.83333333 L3.28835979,1.83333333 Z" id="Shape" fill-rule="nonzero"></path>
                <path d="M5.73913043,15.8253333 L38.2608696,15.8253333 L38.2608696,26.8253333 L5.73913043,26.8253333 L5.73913043,15.8253333 Z M11.165,17.8126667 L11.165,18.9126667 L13.739,18.9126667 L13.739,25.6666667 L15.026,25.6666667 L15.026,18.9126667 L17.6,18.9126667 L17.6,17.8126667 L11.165,17.8126667 Z M19.272,17.6586667 C19.03,17.6586667 18.832,17.7356667 18.667,17.8896667 C18.502,18.0436667 18.425,18.2416667 18.425,18.4836667 C18.425,18.7256667 18.502,18.9236667 18.667,19.0886667 C18.832,19.2426667 19.03,19.3196667 19.272,19.3196667 C19.514,19.3196667 19.712,19.2426667 19.877,19.0886667 C20.042,18.9346667 20.13,18.7256667 20.13,18.4836667 C20.13,18.2416667 20.042,18.0436667 19.888,17.8896667 C19.723,17.7356667 19.514,17.6586667 19.272,17.6586667 Z M18.645,19.9796667 L18.645,25.6666667 L19.899,25.6666667 L19.899,19.9796667 L18.645,19.9796667 Z M23.232,18.1426667 L21.978,18.6596667 L21.978,19.9796667 L20.955,19.9796667 L20.955,21.0136667 L21.978,21.0136667 L21.978,24.2256667 C21.978,24.6876667 22.088,25.0286667 22.308,25.2706667 C22.539,25.5346667 22.902,25.6666667 23.397,25.6666667 L24.354,25.6666667 L24.354,24.6326667 L23.606,24.6326667 C23.474,24.6326667 23.386,24.5996667 23.32,24.5336667 C23.254,24.4566667 23.232,24.3576667 23.232,24.2256667 L23.232,21.0136667 L24.497,21.0136667 L24.497,19.9796667 L23.232,19.9796667 L23.232,18.1426667 Z M25.542,17.6586667 L25.542,25.6666667 L26.796,25.6666667 L26.796,17.6586667 L25.542,17.6586667 Z M30.646,19.8256667 C29.799,19.8256667 29.128,20.1116667 28.644,20.6946667 C28.138,21.2666667 27.896,21.9706667 27.896,22.8176667 C27.896,23.7636667 28.16,24.5006667 28.688,25.0396667 C29.183,25.5566667 29.854,25.8206667 30.701,25.8206667 C31.46,25.8206667 32.087,25.6006667 32.593,25.1716667 C32.989,24.8196667 33.253,24.3686667 33.385,23.8406667 L32.131,23.8406667 C31.977,24.1596667 31.812,24.3906667 31.625,24.5336667 C31.383,24.7096667 31.075,24.7976667 30.69,24.7976667 C30.239,24.7976667 29.887,24.6546667 29.645,24.3796667 C29.403,24.1046667 29.26,23.6976667 29.216,23.1696667 L33.473,23.1696667 C33.473,22.1466667 33.242,21.3436667 32.791,20.7716667 C32.296,20.1336667 31.581,19.8256667 30.646,19.8256667 Z" id="Combined-Shape" fill-rule="nonzero"></path>
                <path d="M30.679,20.8486667 C30.261,20.8486667 29.942,20.9586667 29.7,21.2006667 C29.469,21.4316667 29.315,21.7726667 29.238,22.2236667 L32.164,22.2236667 C32.054,21.2996667 31.559,20.8486667 30.679,20.8486667 Z" id="Path"></path>
                <polygon id="Shape" fill-rule="nonzero" points="5.73913043 5.5 38.2608696 5.5 38.2608696 7.33333333 5.73913043 7.33333333"></polygon>
                <polygon id="Shape" fill-rule="nonzero" points="5.73913043 11 38.2608696 11 38.2608696 12.8333333 5.73913043 12.8333333"></polygon>
                <polygon id="Shape" fill-rule="nonzero" points="5.73913043 36.6666667 38.2608696 36.6666667 38.2608696 38.5 5.73913043 38.5"></polygon>
                <polygon id="Shape-Copy-2" fill-rule="nonzero" points="5.73913043 31.1666667 38.2608696 31.1666667 38.2608696 33 5.73913043 33"></polygon>
            </g>
        </g>
    </g>
</svg>