<?xml version="1.0" encoding="UTF-8"?>
<svg width="44px" height="44px" viewBox="0 0 44 44" version="1.1" xmlns="http://www.w3.org/2000/svg" xmlns:xlink="http://www.w3.org/1999/xlink">
    <!-- Generator: Sketch 52.2 (67145) - http://www.bohemiancoding.com/sketch -->
    <title>文本</title>
    <desc>Created with Sketch.</desc>
    <g id="总览" stroke="none" stroke-width="1" fill="none" fill-rule="evenodd">
        <g id="文章管理-发布图文-添加内容" transform="translate(-542.000000, -396.000000)" fill="#C1C1C1">
            <g id="文本" transform="translate(542.000000, 396.000000)">
                <path d="M43.9423594,12.4347695 L43.8505313,12.3085273 L43.8505313,10.4356484 L41.7635766,8.52260664 L41.7635766,8.5551284 L32.6665453,0.139655742 C32.6248062,0.101394863 32.5757625,0.0765251953 32.5256756,0.0535687109 L32.4661875,0 L4.19835938,0 C1.89332813,0 0.0244546875,1.71312969 0.0244546875,3.82608789 L0.0244546875,40.1739121 C0.0244546875,42.2868703 1.89332344,44 4.19836875,44 L39.67665,44 C41.9816953,44 43.8505641,42.2868703 43.8505641,40.1739121 L43.8505313,12.4347695 L43.9423594,12.4347695 Z M32.3722641,2.58547695 L40.9517813,10.5217578 L34.4592188,10.5217578 C33.3072188,10.5217578 32.3722641,9.66471602 32.3722641,8.60871602 L32.3722641,2.58547695 Z M41.7636094,40.1739336 C41.7636094,41.2299336 40.8286547,42.0869754 39.6766547,42.0869754 L4.19835937,42.0869453 C3.04635937,42.0869453 2.11140469,41.2299035 2.11140469,40.1739035 L2.11141406,3.82608789 C2.11141406,2.77008789 3.04636875,1.91304609 4.19836875,1.91304609 L30.2853375,1.91304609 L30.2853375,8.60869453 C30.2853375,10.7216527 32.1542063,12.4347824 34.4592516,12.4347824 L41.7635953,12.4347824 L41.7636094,40.1739336 Z" id="Shape" fill-rule="nonzero"></path>
                <path d="M8.75308211,11.4782422 L16.369196,11.4782422 C16.5794005,11.4782422 16.75,11.2639815 16.75,10.9999828 L16.75,10.0434598 C16.75,9.77945977 16.5793994,9.56520039 16.369196,9.56520039 L8.75308211,9.56520039 C8.54287765,9.56520039 8.37227812,9.77946105 8.37227812,10.0434598 L8.37227812,10.9999828 C8.37229181,11.264 8.54287765,11.4782422 8.75308211,11.4782422 Z" id="Shape" fill-rule="nonzero"></path>
                <path d="M8.75308211,16.2608789 L16.369196,16.2608789 C16.5794005,16.2608789 16.75,16.0466182 16.75,15.7826195 L16.75,14.8260965 C16.75,14.5620965 16.5793994,14.3478371 16.369196,14.3478371 L8.75308211,14.3478371 C8.54287765,14.3478371 8.37227812,14.5620978 8.37227812,14.8260965 L8.37227812,15.7826195 C8.37229181,16.0465937 8.54287765,16.2608789 8.75308211,16.2608789 Z" id="Shape" fill-rule="nonzero"></path>
                <path d="M8.75308211,21.0434727 L16.369196,21.0434727 C16.5794005,21.0434727 16.75,20.829212 16.75,20.5652133 L16.75,19.6086902 C16.75,19.3446902 16.5793994,19.1304309 16.369196,19.1304309 L8.75308211,19.1304309 C8.54287765,19.1304309 8.37227812,19.3446915 8.37227812,19.6086902 L8.37227812,20.5652133 C8.37229181,20.8292305 8.54287765,21.0434727 8.75308211,21.0434727 Z" id="Shape" fill-rule="nonzero"></path>
                <path d="M8.37229687,27.2608789 L8.37229687,28.217402 C8.37229687,28.481402 8.60603578,28.6956613 8.89403438,28.6956613 L34.9810031,28.6956613 C35.2690031,28.6956613 35.5027406,28.4814007 35.5027406,28.217402 L35.5027406,27.2608789 C35.5027406,26.9968789 35.2690017,26.7826195 34.9810031,26.7826195 L8.89403438,26.7826195 C8.60601562,26.7825938 8.37229687,26.9968789 8.37229687,27.2608789 Z" id="Shape" fill-rule="nonzero"></path>
                <path d="M34.9809844,32.5217578 L8.89401562,32.5217578 C8.60601562,32.5217578 8.37227812,32.7360185 8.37227812,33.0000172 L8.37227812,33.9565402 C8.37227812,34.2205402 8.60601703,34.4347996 8.89401562,34.4347996 L34.9809844,34.4347996 C35.2689844,34.4347996 35.5027219,34.2205389 35.5027219,33.9565402 L35.5027219,33.0000172 C35.5027031,32.736 35.2689844,32.5217578 34.9809844,32.5217578 Z" id="Shape" fill-rule="nonzero"></path>
                <path d="M20.1558333,13.6216667 L20.1558333,14.2725 L22.4658333,14.2725 L22.4658333,20.1666667 L23.2083333,20.1666667 L23.2083333,14.2725 L25.5183333,14.2725 L25.5183333,13.6216667 L20.1558333,13.6216667 Z M25.9216667,15.4275 L27.5991667,17.655 L25.72,20.1666667 L26.5908333,20.1666667 L28.0116667,18.1958333 L29.4233333,20.1666667 L30.2941667,20.1666667 L28.415,17.655 L30.0925,15.4275 L29.2308333,15.4275 L28.0116667,17.1141667 L26.7833333,15.4275 L25.9216667,15.4275 Z M32.1733333,13.8966667 L31.4491667,14.1991667 L31.4491667,15.4275 L30.4958333,15.4275 L30.4958333,16.0416667 L31.4491667,16.0416667 L31.4491667,19.0575 C31.4491667,19.415 31.5225,19.6808333 31.6783333,19.8641667 C31.8433333,20.0658333 32.1275,20.1666667 32.5125,20.1666667 L33.2275,20.1666667 L33.2275,19.5525 L32.6225,19.5525 C32.4575,19.5525 32.3383333,19.5066667 32.2741667,19.4333333 C32.2008333,19.36 32.1733333,19.2316667 32.1733333,19.0575 L32.1733333,16.0416667 L33.3466667,16.0416667 L33.3466667,15.4275 L32.1733333,15.4275 L32.1733333,13.8966667 Z" id="Txt"></path>
            </g>
        </g>
    </g>
</svg>