<?xml version="1.0" encoding="UTF-8"?>
<svg width="16px" height="16px" viewBox="0 0 16 16" version="1.1" xmlns="http://www.w3.org/2000/svg" xmlns:xlink="http://www.w3.org/1999/xlink">
    <!-- Generator: Sketch 52.2 (67145) - http://www.bohemiancoding.com/sketch -->
    <title>统计 (2)</title>
    <desc>Created with Sketch.</desc>
    <g id="Page-1" stroke="none" stroke-width="1" fill="none" fill-rule="evenodd">
        <g id="总览" transform="translate(-26.000000, -156.000000)" fill="#FFFFFF">
            <g transform="translate(0.000000, 144.000000)" id="统计-(2)">
                <g transform="translate(26.000000, 12.000000)">
                    <path d="M3.07352572,14.5365119 C3.07352572,14.8356336 2.83061481,15.076537 2.53350063,15.076537 L1.13626098,15.076537 C0.837139272,15.076537 0.596235885,14.8336261 0.596235885,14.5365119 L0.596235885,9.98544542 C0.596235885,9.68632371 0.839146801,9.44542033 1.13626098,9.44542033 L2.53350063,9.44542033 C2.83262233,9.44542033 3.07352572,9.68833124 3.07352572,9.98544542 L3.07352572,14.5365119 Z M7.20702635,14.5365119 C7.20702635,14.8356336 6.96411543,15.076537 6.66700125,15.076537 L5.26976161,15.076537 C4.9706399,15.076537 4.72973651,14.8336261 4.72973651,14.5365119 L4.72973651,6.93400251 C4.72973651,6.6348808 4.97264743,6.39397742 5.26976161,6.39397742 L6.66700125,6.39397742 C6.96612296,6.39397742 7.20702635,6.63688833 7.20702635,6.93400251 L7.20702635,14.5365119 Z M15.4760351,14.5365119 C15.4760351,14.8356336 15.2331242,15.076537 14.93601,15.076537 L13.5387704,15.076537 C13.2396487,15.076537 12.9987453,14.8336261 12.9987453,14.5365119 L12.9987453,4.26398996 C12.9987453,3.96486826 13.2416562,3.72396487 13.5387704,3.72396487 L14.93601,3.72396487 C15.2331242,3.72396487 15.4760351,3.96687578 15.4760351,4.26398996 L15.4760351,14.5365119 Z M11.340527,14.5365119 C11.340527,14.8356336 11.0976161,15.076537 10.8005019,15.076537 L9.40326223,15.076537 C9.10414053,15.076537 8.86323714,14.8336261 8.86323714,14.5365119 L8.86323714,8.0782936 C8.86323714,7.77917189 9.10614806,7.53826851 9.40326223,7.53826851 L10.8005019,7.53826851 C11.0996236,7.53826851 11.340527,7.78117942 11.340527,8.0782936 L11.340527,14.5365119 Z" id="形状" fill-rule="nonzero"></path>
                    <polygon id="路径" points="9.49560853 4.97867001 8.98569636 4.19974906 15.2632371 0.0943538269 15.7731493 0.87327478"></polygon>
                    <path d="M15.7731493,0.87327478 C15.5583438,1.01380176 15.2692597,0.95357591 15.1287327,0.738770389 C14.9882058,0.523964868 15.0484316,0.234880803 15.2632371,0.0943538269 C15.4780427,-0.0461731493 15.7671267,0.0140526976 15.9076537,0.228858218 C16.0481807,0.443663739 15.9879548,0.732747804 15.7731493,0.87327478 Z M9.49560853,4.97867001 C9.28080301,5.11919699 8.99171895,5.05897114 8.85119197,4.84416562 C8.71066499,4.6293601 8.77089084,4.34027604 8.98569636,4.19974906 C9.20050188,4.05922208 9.48757842,4.11944793 9.63011292,4.33425345 C9.7706399,4.54905897 9.71041405,4.83814304 9.49560853,4.97867001 Z" id="形状" fill-rule="nonzero"></path>
                    <polygon id="路径" points="9.41129235 4.15558344 9.07202008 5.02283563 4.3944793 3.21204517 4.73375157 2.34479297"></polygon>
                    <path d="M4.73375157,2.34479297 C4.97264743,2.4391468 5.09109159,2.70815558 4.99673777,2.94705144 C4.90238394,3.1859473 4.63337516,3.30439147 4.3944793,3.21003764 C4.15558344,3.11568381 4.03713927,2.84667503 4.1314931,2.60777917 C4.22584693,2.36888331 4.49485571,2.25043915 4.73375157,2.34479297 Z M9.41129235,4.15558344 C9.65018821,4.24993726 9.76863237,4.51894605 9.67427854,4.75784191 C9.58193225,4.99673777 9.31091593,5.11518193 9.07202008,5.02082811 C8.83312422,4.92647428 8.71468005,4.6574655 8.80903388,4.41856964 C8.90138018,4.1816813 9.17239649,4.06323714 9.41129235,4.15558344 Z" id="形状" fill-rule="nonzero"></path>
                    <polygon id="路径" points="0.752823087 6.09084065 0.198745295 5.34002509 4.19171895 2.40100376 4.74378921 3.15181932"></polygon>
                    <path d="M4.74378921,3.15181932 C4.5370138,3.30439147 4.24592221,3.26022585 4.09335006,3.05345044 C3.94077792,2.84667503 3.98494354,2.55558344 4.19171895,2.40301129 C4.39849435,2.25043915 4.68958595,2.29460477 4.84215809,2.50138018 C4.99473024,2.70815558 4.95056462,2.99924718 4.74378921,3.15181932 Z M0.750815558,6.09084065 C0.544040151,6.2434128 0.252948557,6.19924718 0.100376412,5.99247177 C-0.052195734,5.78569636 -0.00803011292,5.49460477 0.198745295,5.34203262 C0.405520703,5.18946048 0.696612296,5.2336261 0.849184442,5.44040151 C1.00376412,5.64717691 0.959598494,5.93826851 0.750815558,6.09084065 Z" id="形状" fill-rule="nonzero"></path>
                </g>
            </g>
        </g>
    </g>
</svg>