<?xml version="1.0" encoding="UTF-8"?>
<svg width="16px" height="16px" viewBox="0 0 16 16" version="1.1" xmlns="http://www.w3.org/2000/svg" xmlns:xlink="http://www.w3.org/1999/xlink">
    <!-- Generator: Sketch 52.2 (67145) - http://www.bohemiancoding.com/sketch -->
    <title>专辑 copy</title>
    <desc>Created with Sketch.</desc>
    <g id="组件" stroke="none" stroke-width="1" fill="none" fill-rule="evenodd">
        <g id="专辑-copy" fill="#FFFFFF" fill-rule="nonzero">
            <path d="M15.0310397,15.9902931 L0.975991795,15.9902931 C0.446637895,15.9902931 0.0176022297,15.4535497 0.0176022297,14.7913036 L0.0176022297,10.2954014 L3.14802025,0.00458898745 L12.8590295,0.00458898745 L15.9894293,10.2954014 L15.9894293,14.7913036 C15.9894293,15.4535497 15.5603936,15.9902931 15.0310397,15.9902931 Z M12.1563638,0.804143665 L3.85066768,0.804143665 L1.29529072,9.99598516 L3.4117024,9.99534576 L5.44814791,13.5923142 L10.5588836,13.5923142 L12.4354332,9.99534576 L14.7117225,9.99598516 L12.1563638,0.804143665 Z M3.84221656,8.79697288 L4.02445405,7.99744105 L11.9825592,7.99744105 L12.1647967,8.79697288 L3.84221656,8.79697288 Z M4.48032155,5.99894259 L11.5267282,5.99894259 L11.7089657,6.79847442 L4.29808405,6.79847442 L4.48032155,5.99894259 Z M4.9366819,4.00103786 L11.0708607,4.00103786 L11.2530982,4.80056968 L4.75393332,4.80056968 L4.9366819,4.00103786 Z M5.39203833,2.00313312 L10.6149932,2.00313312 L10.7972307,2.8020484 L5.20978258,2.8020484 L5.39203833,2.00313312 Z" id="形状"></path>
        </g>
    </g>
</svg>