<?xml version="1.0" encoding="UTF-8"?>
<svg width="160px" height="54px" viewBox="0 0 160 54" version="1.1" xmlns="http://www.w3.org/2000/svg" xmlns:xlink="http://www.w3.org/1999/xlink">
    <!-- Generator: Sketch 52.2 (67145) - http://www.bohemiancoding.com/sketch -->
    <title>logo</title>
    <desc>Created with Sketch.</desc>
    <g id="Page-1" stroke="none" stroke-width="1" fill="none" fill-rule="evenodd">
        <g id="总览" transform="translate(-40.000000, -27.000000)" fill="#FFFFFF">
            <g id="分组-4" transform="translate(40.000000, 0.000000)">
                <g id="logo" transform="translate(0.000000, 26.000000)">
                    <path d="M31.6554172,22.9754038 C31.3322384,28.3135769 26.6509139,35.1219423 17.2925033,36.6175192 C17.1727682,36.6386731 17.0551523,36.6704038 16.9343576,36.6905 C16.6281325,36.7423269 16.3197881,36.7761731 16.0103841,36.8089615 C15.962702,36.8131923 15.9097219,36.8174231 15.8620397,36.8121346 C15.8472053,36.8131923 15.8323709,36.8153077 15.8175364,36.8174231 C15.8175364,36.8174231 15.8302517,36.8100192 15.8334305,36.8089615 C15.7815099,36.7930962 15.7444238,36.7518462 15.7476026,36.6566538 C15.7539603,36.4895385 15.6744901,36.2568462 15.9446887,36.2187692 C16.4522384,36.1489615 17.423894,35.7089615 18.3351523,35.2446346 C19.6967417,34.2821346 21.1399205,33.0382885 21.3380662,31.9668462 C21.3380662,31.9668462 21.5277351,31.4327115 20.8209801,31.3110769 C20.8209801,31.3110769 17.5224371,31.0477115 15.0599205,27.8894423 C13.7216424,26.2140577 12.9248212,24.0690577 12.9428344,21.7357885 C12.9841589,16.4293462 17.2215099,12.1583846 22.4072053,12.1985769 C27.5939603,12.2387692 31.7656159,16.5731923 31.7242914,21.8796346 C31.7211126,22.2508846 31.6988609,22.6168462 31.6554172,22.9754038 M44.6207152,22.2847308 C44.546543,21.3370385 44.4713113,20.3861731 44.3282649,19.4469423 C44.1513113,18.2877115 43.8408477,17.1591538 43.4562119,16.0485769 C43.0683974,14.9295385 42.6011126,13.8485769 42.0416424,12.80675 C41.3062781,11.4359808 40.432106,10.1582885 39.4254834,8.9705 C38.3828344,7.74040385 37.2204503,6.63828846 35.9446887,5.65463462 C34.9592583,4.89521154 33.9261457,4.20136538 32.8072053,3.65559615 C31.8630993,3.19338462 30.9020397,2.75973077 29.9229669,2.37896154 C28.8856159,1.97598077 27.813298,1.66925 26.7091921,1.49790385 C25.7449536,1.34876923 24.7807152,1.16261538 23.8101192,1.10655769 C22.5322384,1.03357692 21.2511788,1.03040385 19.9701192,1.17953846 C18.7102517,1.3255 17.469457,1.54444231 16.2509139,1.88607692 C14.6021722,2.34617308 13.0297219,2.99136538 11.5282649,3.81742308 C9.73753642,4.80107692 8.11528477,6.00684615 6.65515232,7.43367308 C5.73329801,8.33482692 4.89409272,9.30684615 4.14071523,10.3550192 C3.43501987,11.3355 2.8098543,12.3625192 2.27687417,13.4424231 C1.58919205,14.8354038 1.02654305,16.2812692 0.686410596,17.8011731 C0.477668874,18.7372308 0.284821192,19.6796346 0.162966887,20.6305 C0.0220397351,21.7315577 -0.0341192053,22.8410769 0.0209801325,23.958 C0.085615894,25.2674231 0.225483444,26.5630962 0.494622517,27.8460769 C0.800847682,29.3099231 1.25647682,30.723 1.85515232,32.0927115 C2.41038411,33.3577115 3.05250331,34.5793462 3.86309934,35.6973269 C4.49780132,36.5709808 5.15581457,37.4372308 5.89011921,38.2273269 C6.66574834,39.0629038 7.55581457,39.7916538 8.37488742,40.5880962 C9.5690596,41.7505 10.7452185,42.9319423 11.9266755,44.1070385 C12.5380662,44.7152115 13.1473377,45.3244423 13.7576689,45.9326154 L21.4249536,54.1540577 C21.4249536,54.1540577 22.0119735,54.8500192 22.7452185,54.1032885 L29.794755,46.9321346 C29.9007152,46.8295385 30.0077351,46.728 30.1136954,46.6254038 C31.7454834,45.0536731 33.3772715,43.483 35.0048212,41.9059808 C35.5971391,41.3316538 36.1428344,40.7044423 36.7658808,40.1660769 C37.7248212,39.3368462 38.6223046,38.4515577 39.4445563,37.488 C40.5052185,36.2452115 41.4196556,34.8998269 42.1592583,33.4444423 C42.5820397,32.6109808 42.9687947,31.7531923 43.3015099,30.8795385 C43.7815099,29.6198269 44.1491921,28.3220385 44.3272053,26.9819423 C44.4628344,25.9718462 44.5698543,24.9575192 44.6461457,23.9410769 C44.6864106,23.3921346 44.6641589,22.8347308 44.6207152,22.2847308" id="Fill-1"></path>
                    <path d="M70.1741987,13.0522404 L77.3784371,13.0522404 L77.3784371,8.97060577 L80.8581722,8.97060577 L80.8581722,13.0522404 L82.9032053,13.0522404 L82.9032053,16.2834904 L80.8581722,16.2834904 L80.8581722,28.3094519 C80.8581722,29.6696442 80.5540662,30.6987788 79.9458543,31.3947404 C79.3376424,32.0917596 78.4963179,32.4598365 77.4208212,32.5010865 C76.3463841,32.5412788 74.7495629,32.561375 72.6324768,32.561375 C72.3728742,31.0869519 72.0963179,29.9055096 71.8049272,29.013875 C74.1085033,29.0783942 75.3747285,29.1111827 75.6014834,29.1111827 C76.7861192,29.1111827 77.3784371,28.4956058 77.3784371,27.2655096 L77.3784371,16.2834904 L70.1741987,16.2834904 L70.1741987,13.0522404 Z M72.3156556,17.5950288 C73.4197616,18.9721442 74.879894,20.9320481 76.6971126,23.4747404 L73.7514172,25.3944519 C72.2753907,22.9480096 70.9530066,20.9077212 69.7842649,19.2714712 L72.3156556,17.5950288 Z M63.0918146,26.4394519 L66.2557881,26.4394519 L66.2557881,21.6290673 L63.0918146,21.6290673 L63.0918146,26.4394519 Z M63.0918146,18.5183942 L66.2557881,18.5183942 L66.2557881,13.7080096 L63.0918146,13.7080096 L63.0918146,18.5183942 Z M59.8790993,31.4677212 L59.8790993,10.5010865 L69.4685033,10.5010865 L69.4685033,31.3217596 L66.2557881,31.3217596 L66.2557881,29.6453173 L63.0918146,29.6453173 L63.0918146,31.4677212 L59.8790993,31.4677212 Z" id="Fill-3"></path>
                    <path d="M103.372079,10.1854712 L106.46294,12.420375 C104.370225,14.8498942 102.723603,16.6236442 101.522013,17.741625 L98.845457,15.4580673 C100.208106,14.1454712 101.71698,12.3886442 103.372079,10.1854712 Z M87.7704901,10.1854712 C89.7180397,12.145375 91.2926093,13.8302788 92.4920795,15.239125 L89.5474437,17.4740288 C87.9251921,15.4326827 86.4322119,13.6917212 85.0695629,12.2511442 L87.7704901,10.1854712 Z M104.224,23.5229712 C105.619497,23.9936442 106.804132,24.3659519 107.776848,24.6409519 C107.355126,28.4147981 106.81049,30.6539327 106.140821,31.3594135 C105.471152,32.0638365 104.41049,32.4160481 102.958834,32.4160481 L100.59698,32.4160481 C97.9850596,32.4160481 96.6796291,31.0875865 96.6796291,28.4306635 L96.6796291,21.5799904 L93.7943311,21.5799904 C93.7869139,27.3296058 91.2682384,31.0875865 86.2383046,32.852875 C85.3132715,31.6872981 84.4285033,30.7226827 83.5850596,29.9622019 C87.9495629,28.3100865 90.0793642,25.5156635 89.973404,21.5799904 L83.9983046,21.5799904 L83.9983046,18.2027788 L93.7826755,18.2027788 L93.7826755,8.84960577 L97.4817483,8.84960577 L97.4817483,18.2027788 L107.461086,18.2027788 L107.461086,21.5799904 L100.281219,21.5799904 L100.281219,27.6786442 C100.281219,28.7151827 100.719894,29.2323942 101.595126,29.2323942 L102.180026,29.2323942 C102.844397,29.2323942 103.294728,28.9499904 103.52996,28.3830673 C103.766252,27.8150865 103.997245,26.1957596 104.224,23.5229712 Z" id="Fill-5"></path>
                    <path d="M121.504424,10.6228269 C122.737801,11.5292692 124.108927,12.6641731 125.617801,14.0243654 L123.35449,16.2592692 C122.138066,14.9635962 120.838993,13.7736923 119.46045,12.6885 L121.504424,10.6228269 Z M120.677934,16.7934038 C122.104159,17.8468654 123.492238,18.9881154 124.838993,20.2192692 L122.551311,22.4309038 C121.447205,21.2642692 120.133298,20.0902308 118.60853,18.9077308 L120.677934,16.7934038 Z M117.902834,24.4225385 L125.812768,23.7054231 L125.812768,8.89773077 L129.244821,8.89773077 L129.244821,23.3902308 L132.55502,23.0866731 L132.823099,26.1719615 L129.244821,26.4998462 L129.244821,32.7804231 L125.812768,32.7804231 L125.812768,26.8034038 L118.316079,27.4835 L117.902834,24.4225385 Z M108.532768,25.1512885 C110.081907,23.2802308 111.279258,21.2314808 112.122702,19.0050385 L108.751046,19.0050385 L108.751046,15.8700385 L112.231841,15.8700385 L112.231841,13.1496538 L109.287205,13.41725 C109.124026,12.3151346 108.938596,11.3515769 108.726675,10.5255192 C112.085616,10.2663846 115.184954,9.93426923 118.024689,9.52917308 L118.949722,12.37225 C117.854093,12.5256154 116.669457,12.6758077 115.395815,12.8217692 L115.395815,15.8700385 L118.559788,15.8700385 L118.559788,19.0050385 L115.395815,19.0050385 L115.395815,21.0939808 L116.564556,20.0003269 C117.732238,21.0368654 118.721907,21.9760962 119.533563,22.8190769 L117.48853,24.66475 C116.685351,23.7255192 115.988132,22.9364808 115.395815,22.2965769 L115.395815,32.7804231 L112.231841,32.7804231 L112.231841,24.5685 C111.468927,26.1719615 110.609589,27.6611923 109.651709,29.0383077 C109.376212,27.9689808 109.002172,26.6733077 108.532768,25.1512885 Z" id="Fill-7"></path>
                    <path d="M157.136636,15.2389135 L151.198623,15.2389135 L151.198623,17.9360288 L156.528424,17.9360288 L156.528424,20.8753558 C155.546172,23.2318942 154.102993,25.3250673 152.195709,27.1559327 C153.81796,28.0792981 155.643656,28.8440096 157.672795,29.4521827 C156.877033,30.8282404 156.220079,31.9208365 155.700874,32.7310288 C153.412132,31.8806442 151.320477,30.7753558 149.421669,29.4151635 C147.482596,30.7510288 145.219285,31.9049712 142.631735,32.8769904 C142.095576,31.9694904 141.454517,30.9170865 140.707497,29.7187212 C142.980344,28.9656442 144.955444,28.0951635 146.634914,27.1072788 C145.272265,25.8031442 144.034649,24.3340096 142.923126,22.6977596 L145.673854,21.0699712 C146.662464,22.6247788 147.887364,24.0018942 149.347497,25.1992019 C150.824583,23.9363173 151.936106,22.5274712 152.683126,20.9726635 L142.289483,20.9726635 L142.289483,17.9360288 L147.693457,17.9360288 L147.693457,15.2389135 L142.338225,15.2389135 L142.338225,12.3239135 L147.693457,12.3239135 L147.693457,8.84939423 L151.198623,8.84939423 L151.198623,12.3239135 L157.136636,12.3239135 L157.136636,15.2389135 Z M133.746967,13.1245865 L136.473325,13.1245865 L136.473325,8.84939423 L139.612927,8.84939423 L139.612927,13.1245865 L141.681272,13.1245865 L141.681272,16.2839135 L139.612927,16.2839135 L139.612927,19.9403558 L141.803126,19.4665096 C141.721536,20.8594904 141.689748,21.9203558 141.705642,22.6491058 L139.612927,23.1589135 L139.612927,29.5241058 C139.612927,30.5849712 139.349086,31.3814135 138.822464,31.9113173 C138.294781,32.4422788 136.870675,32.7067019 134.551205,32.7067019 C134.388026,31.8975673 134.11253,30.7954519 133.722596,29.4035288 C134.355179,29.4521827 134.899815,29.4754519 135.353325,29.4754519 C135.79094,29.4754519 136.087629,29.3866058 136.241272,29.2089135 C136.395974,29.0301635 136.473325,28.722375 136.473325,28.2855481 L136.473325,23.9246827 L133.84445,24.5920865 L133.503258,21.118625 L136.473325,20.5717981 L136.473325,16.2839135 L133.746967,16.2839135 L133.746967,13.1245865 Z" id="Fill-9"></path>
                    <path d="M65.7877616,43.8828077 C65.7877616,41.7684808 64.8796821,39.4806923 62.7233907,39.4806923 C61.5408742,39.4806923 60.2958411,40.1650192 60.2958411,43.0609808 C60.2958411,45.4862692 61.3300132,47.6608846 63.4333245,47.6608846 C64.2301457,47.6608846 65.7877616,47.3266538 65.7877616,43.8828077 M62.9723974,48.4562692 C59.2998146,48.4562692 57.8047152,45.7475192 57.8047152,43.5464615 C57.8047152,41.2079038 59.4619338,38.7096346 63.1228609,38.7096346 C66.3737219,38.7096346 68.2788874,40.9106923 68.2788874,43.3603077 C68.2788874,45.2123269 67.3941192,46.5672308 66.2603444,47.4133846 L68.5522649,48.6572308 C71.0571656,49.9359808 72.6253775,50.1729038 73.7220662,50.1729038 C74.519947,50.1729038 75.3167682,50.0745385 76.0002119,49.7625192 C76.0754437,49.7381923 76.186702,49.6874231 76.2619338,49.6874231 C76.3244503,49.6874231 76.3488212,49.7138654 76.3488212,49.7625192 C76.3488212,49.84925 76.2375629,49.9359808 76.1506755,49.9994423 C75.2659073,50.5695385 73.7591523,51.2781923 71.6802119,51.2781923 C69.9986225,51.2781923 68.6031258,50.7821346 66.6089536,49.5393462 L64.5670993,48.2574231 C64.1072318,48.3695385 63.5350464,48.4562692 62.9723974,48.4562692" id="Fill-11"></path>
                    <path d="M75.0143576,43.2610962 C75.0143576,41.5825385 75.0143576,41.2959038 74.9762119,40.9616731 C74.9518411,40.6739808 74.8766093,40.4751346 74.6032318,40.4391731 C74.528,40.4127308 74.4040265,40.4000385 74.2535629,40.3884038 C74.1041589,40.3757115 74.042702,40.33975 74.042702,40.2646538 C74.042702,40.20225 74.0797881,40.1387885 74.2927682,40.1387885 C74.7272053,40.1387885 75.9234967,40.1779231 75.9595232,40.1779231 C76.0230993,40.1779231 77.4302517,40.1387885 77.8540927,40.1387885 C78.053298,40.1387885 78.0776689,40.1895577 78.0776689,40.2646538 C78.0776689,40.3524423 77.9897219,40.3757115 77.8540927,40.3884038 C77.7407152,40.4000385 77.7290596,40.4000385 77.6040265,40.4264808 C77.3062781,40.4878269 77.2045563,40.601 77.1558146,40.9733077 C77.1176689,41.3223462 77.1176689,41.5825385 77.1176689,43.2610962 L77.1176689,45.1501346 C77.1176689,45.9698462 77.1325033,46.9905192 77.1801854,47.4495577 C77.2045563,47.7235 77.2797881,47.9096538 77.6167417,47.98475 C77.7672053,48.0207115 77.9536954,48.0207115 78.0776689,48.0355192 C78.2630993,48.0355192 78.3139603,48.1085 78.3139603,48.1709038 C78.3139603,48.2216731 78.2630993,48.2819615 78.0776689,48.2819615 C77.3062781,48.2819615 76.0230993,48.246 75.9595232,48.246 C75.9351523,48.246 74.6392583,48.2819615 74.2927682,48.2819615 C74.1041589,48.2819615 74.0310464,48.246 74.0310464,48.1582115 C74.0310464,48.0958077 74.0914437,48.0355192 74.2175364,48.0355192 C74.3171391,48.0207115 74.4283974,48.0207115 74.5788609,47.9974423 C74.8140927,47.9477308 74.914755,47.7235 74.9391258,47.4135962 C75.002702,46.9661923 75.0143576,46.2194615 75.0143576,45.1501346 L75.0143576,43.2610962 Z" id="Fill-13"></path>
                    <path d="M84.6707285,40.5382788 C84.6855629,40.1776058 84.7215894,39.9914519 84.8837086,39.9914519 C84.9462252,39.9914519 84.9960265,39.9914519 85.3075497,40.2262596 C85.842649,40.6493365 87.5613245,42.1174135 88.944106,43.3337596 C90.1774834,44.4168365 90.7623841,44.9128942 91.0866225,45.2005865 L91.0230464,41.397125 C90.9986755,40.7995288 90.9234437,40.5139519 90.4392053,40.4388558 C90.301457,40.4124135 90.1637086,40.4007788 89.9888742,40.3880865 C89.8405298,40.3764519 89.7907285,40.3129904 89.7907285,40.2643365 C89.7907285,40.1776058 89.8892715,40.1395288 90.002649,40.1395288 C90.4127152,40.1395288 91.1851656,40.1776058 91.6842384,40.1776058 C91.9576159,40.1776058 92.5425166,40.1395288 92.9907285,40.1395288 C93.1772185,40.1395288 93.2280795,40.1892404 93.2280795,40.2527019 C93.2280795,40.3013558 93.2037086,40.3764519 93.0415894,40.3880865 C92.9038411,40.4007788 92.866755,40.4007788 92.7925828,40.4124135 C92.418543,40.4631827 92.2924503,40.6250096 92.2564238,41.3093365 C92.1568212,43.3337596 92.1207947,45.5348173 92.1070199,47.6988558 C92.1070199,48.3207788 92.0339073,48.4318365 91.8707285,48.4318365 C91.6842384,48.4318365 91.2974834,48.1589519 90.4127152,47.4376058 C89.6423841,46.7924135 88.7576159,46.0329904 88.2225166,45.5464519 C87.6238411,45.0123173 86.6649007,44.1926058 85.7059603,43.322125 L85.8172185,46.8167404 C85.842649,47.5613558 85.8670199,47.873375 86.2039735,47.9601058 C86.4148344,48.0087596 86.5409272,48.0214519 86.7645033,48.0352019 C86.9509934,48.0595288 87.0018543,48.0965481 87.0018543,48.1589519 C87.0018543,48.2456827 86.9266225,48.2816442 86.7274172,48.2816442 C86.4148344,48.2816442 86.0789404,48.2573173 85.2937748,48.2456827 C84.9833113,48.2456827 84.0752318,48.2816442 83.6990728,48.2816442 C83.5125828,48.2816442 83.4521854,48.2456827 83.4521854,48.1589519 C83.4521854,48.0965481 83.5009272,48.0478942 83.6503311,48.0352019 C83.762649,48.0214519 83.8251656,48.0214519 83.9607947,48.0087596 C84.4238411,47.9474135 84.5223841,47.6988558 84.5594702,46.704625 C84.6219868,44.4781827 84.6219868,41.9799135 84.6707285,40.5382788" id="Fill-15"></path>
                    <path d="M107.048689,47.1767788 C107.048689,47.8854327 107.022199,47.9605288 106.798623,48.035625 C106.237033,48.2217788 105.091603,48.4322596 104.071205,48.4322596 C100.832,48.4322596 98.7021987,47.0392788 98.7021987,44.2046635 C98.7021987,42.3907212 99.7003444,41.2716827 100.745113,40.6994712 C101.903258,40.0394712 103.163126,39.991875 103.995974,39.991875 C104.642331,39.991875 105.216636,40.0521635 105.752795,40.1272596 C106.163921,40.1780288 106.53796,40.253125 106.860079,40.2647596 C106.973457,40.2647596 106.997828,40.3398558 106.960742,40.4392788 C106.946967,40.5387019 106.822993,41.009375 106.822993,42.4658173 C106.822993,42.6392788 106.772132,42.700625 106.685245,42.700625 C106.598358,42.700625 106.573987,42.5895673 106.562331,42.5017788 C106.53796,42.3642788 106.525245,42.2288942 106.462728,42.0660096 C106.323921,41.2346635 105.304583,40.7121635 103.68551,40.7121635 C102.813457,40.7121635 102.16498,40.9734135 101.728424,41.5075481 C101.342728,41.9792788 101.093722,42.7387019 101.093722,43.7329327 C101.093722,45.5733173 101.928689,47.6865865 104.146437,47.6865865 C104.368954,47.6865865 104.681536,47.6612019 104.80551,47.5374519 C104.880742,47.4866827 104.916768,47.3988942 104.916768,47.2762019 L104.916768,46.729375 C104.916768,46.3062981 104.916768,45.8948558 104.930543,45.4865865 C104.930543,44.8138942 104.781139,44.5917788 104.368954,44.5410096 C104.221669,44.5166827 104.071205,44.5039904 103.884715,44.4923558 C103.773457,44.4775481 103.709881,44.4045673 103.709881,44.3421635 C103.709881,44.2797596 103.773457,44.2437981 103.947232,44.2437981 C104.717563,44.2437981 105.602331,44.268125 105.888424,44.268125 C106.323921,44.268125 107.060344,44.2437981 107.743788,44.2437981 C107.894252,44.2437981 107.993854,44.268125 107.993854,44.3548558 C107.993854,44.4288942 107.945113,44.4532212 107.820079,44.4923558 C107.771338,44.4923558 107.608159,44.5039904 107.520212,44.5166827 C107.235179,44.5526442 107.121801,44.6647596 107.09743,45.0391827 C107.048689,45.4114904 107.048689,45.9699519 107.048689,46.4924519 L107.048689,47.1767788 Z" id="Fill-17"></path>
                    <path d="M118.252079,44.6781923 C118.252079,45.6480962 118.252079,46.8041538 118.313536,47.3266538 C118.340026,47.6481923 118.426914,47.9094423 118.800954,47.9718462 C118.962013,47.9972308 119.110358,48.0088654 119.334993,48.0353077 C119.534199,48.048 119.58506,48.0839615 119.58506,48.1706923 C119.58506,48.2457885 119.521483,48.28175 119.296848,48.28175 C118.450225,48.28175 117.242278,48.2457885 117.043073,48.2457885 C116.832212,48.2457885 115.624265,48.28175 115.212079,48.28175 C115.012874,48.28175 114.925987,48.2574231 114.925987,48.1590577 C114.925987,48.0712692 115.025589,48.0353077 115.176053,48.0353077 C115.298967,48.0215577 115.437775,48.0088654 115.573404,47.9845385 C115.846781,47.9337692 115.933669,47.6608846 115.972874,47.3002115 C116.021616,46.7777115 116.048106,45.8829038 116.048106,44.6781923 L116.048106,39.8054038 C115.560689,39.8054038 114.787179,39.7905962 114.166252,39.8297308 C113.469033,39.8656923 113.194596,40.0285769 113.033536,40.4632885 C112.97102,40.6007885 112.946649,40.6737692 112.920159,40.7488654 C112.895788,40.8472308 112.858702,40.9466538 112.771815,40.9466538 C112.658437,40.9466538 112.658437,40.8472308 112.672212,40.7002115 C112.720954,40.1893462 112.858702,39.5177115 112.946649,39.0459808 C112.97102,38.8598269 113.008106,38.7339615 113.082278,38.7339615 C113.169166,38.7339615 113.220026,38.7730962 113.506119,38.8355 C113.730755,38.8841538 114.415258,38.9222308 114.888901,38.9222308 L120.306649,38.9222308 C120.692344,38.9222308 120.91804,38.8957885 121.091815,38.8714615 C121.29102,38.8355 121.390623,38.7963654 121.47751,38.7963654 C121.588768,38.7963654 121.600424,38.8714615 121.600424,39.1813654 C121.600424,39.3558846 121.528371,40.5140577 121.513536,40.8229038 C121.500821,40.9974231 121.464795,41.0725192 121.390623,41.0725192 C121.29102,41.0725192 121.266649,40.9974231 121.251815,40.8472308 C121.240159,40.7118462 121.240159,40.6621346 121.228503,40.6007885 C121.179762,40.2136731 120.990093,39.9164615 120.256848,39.8656923 C119.846781,39.8297308 119.198305,39.8054038 118.252079,39.8054038 L118.252079,44.6781923 Z" id="Fill-19"></path>
                    <path d="M127.925086,43.2610962 C127.925086,41.5825385 127.925086,41.2959038 127.88694,40.9616731 C127.86151,40.6739808 127.787338,40.4751346 127.512901,40.4391731 C127.438728,40.4127308 127.314755,40.4000385 127.164291,40.3884038 C127.014887,40.3757115 126.95343,40.33975 126.95343,40.2646538 C126.95343,40.20225 126.989457,40.1387885 127.202437,40.1387885 C127.637934,40.1387885 128.833166,40.1779231 128.870252,40.1779231 C128.932768,40.1779231 130.339921,40.1387885 130.764821,40.1387885 C130.962967,40.1387885 130.988397,40.1895577 130.988397,40.2646538 C130.988397,40.3524423 130.90045,40.3757115 130.764821,40.3884038 C130.650384,40.4000385 130.639788,40.4000385 130.514755,40.4264808 C130.217007,40.4878269 130.115285,40.601 130.066543,40.9733077 C130.028397,41.3223462 130.028397,41.5825385 130.028397,43.2610962 L130.028397,45.1501346 C130.028397,45.9698462 130.042172,46.9905192 130.090914,47.4495577 C130.115285,47.7235 130.190517,47.9096538 130.52747,47.98475 C130.677934,48.0207115 130.863364,48.0207115 130.988397,48.0355192 C131.173828,48.0355192 131.224689,48.1085 131.224689,48.1709038 C131.224689,48.2216731 131.173828,48.2819615 130.988397,48.2819615 C130.217007,48.2819615 128.932768,48.246 128.870252,48.246 C128.845881,48.246 127.549987,48.2819615 127.202437,48.2819615 C127.014887,48.2819615 126.940715,48.246 126.940715,48.1582115 C126.940715,48.0958077 127.002172,48.0355192 127.128265,48.0355192 C127.227868,48.0207115 127.338066,48.0207115 127.489589,47.9974423 C127.724821,47.9477308 127.825483,47.7235 127.849854,47.4135962 C127.912371,46.9661923 127.925086,46.2194615 127.925086,45.1501346 L127.925086,43.2610962 Z" id="Fill-21"></path>
                    <path d="M146.773404,46.8912019 C146.860291,47.5882212 146.999099,47.8611058 147.37102,47.9605288 C147.570225,48.0208173 147.696318,48.0208173 147.882808,48.035625 C148.042808,48.0588942 148.080954,48.0959135 148.080954,48.1710096 C148.080954,48.2577404 148.031152,48.2820673 147.844662,48.2820673 C146.760689,48.2820673 146.101616,48.296875 144.619232,48.2217788 C144.432742,48.2217788 144.394596,48.1339904 144.394596,48.0832212 C144.394596,48.035625 144.445457,47.9964904 144.507974,47.9721635 C144.718834,47.8970673 144.743205,47.8611058 144.694464,47.3269712 L144.35857,43.6959135 L142.08996,47.6612019 C141.779497,48.2217788 141.692609,48.2820673 141.605722,48.2820673 C141.479629,48.2820673 141.430887,48.1953365 141.082278,47.6865865 C140.621351,46.9662981 140.047046,45.9699519 139.536318,45.161875 C139.337113,44.8265865 138.901616,44.0565865 138.726781,43.7953365 L138.453404,46.5167788 C138.416318,47.0530288 138.416318,47.2635096 138.416318,47.4253365 C138.416318,47.7616827 138.51698,47.9213942 138.814728,47.9848558 C138.952477,48.0091827 139.064795,48.0208173 139.214199,48.035625 C139.362543,48.035625 139.42506,48.0832212 139.42506,48.1466827 C139.42506,48.2334135 139.377377,48.2820673 139.176053,48.2820673 C138.690755,48.2820673 138.067709,48.2461058 137.706384,48.2461058 C137.319629,48.2461058 136.796185,48.2820673 136.362808,48.2820673 C136.248371,48.2820673 136.137113,48.2577404 136.137113,48.1466827 C136.137113,48.0832212 136.187974,48.0472596 136.335258,48.035625 C136.449695,48.0208173 136.536583,48.0208173 136.660556,48.0091827 C136.985854,47.9478365 137.133139,47.7616827 137.259232,46.9398558 L138.242543,40.4509135 C138.304,40.0902404 138.378172,39.991875 138.492609,39.991875 C138.603868,39.991875 138.70347,40.1029327 138.939762,40.4509135 L142.176848,45.3744712 L145.242278,40.3885096 C145.453139,40.0902404 145.552742,39.991875 145.651285,39.991875 C145.789033,39.991875 145.839894,40.1388942 145.888636,40.4392788 L146.773404,46.8912019 Z" id="Fill-23"></path>
                    <path d="M153.907073,43.2610962 C153.907073,41.4693654 153.894358,41.2715769 153.867868,40.9225385 C153.843497,40.6496538 153.732238,40.4751346 153.470517,40.4264808 C153.370914,40.4000385 153.245881,40.4000385 153.134623,40.3884038 C152.971444,40.3757115 152.948132,40.3133077 152.948132,40.2530192 C152.948132,40.1895577 153.009589,40.1387885 153.184424,40.1387885 C153.856212,40.1387885 154.378596,40.1779231 154.852238,40.1779231 C155.052503,40.1779231 157.916609,40.1652308 158.090384,40.1652308 C158.301245,40.1652308 158.539656,40.1514808 158.726146,40.1144615 C158.800318,40.0901346 158.863894,40.0785 158.899921,40.0785 C158.962437,40.0785 158.987868,40.1271538 158.975152,40.1895577 C158.950781,40.326 158.912636,40.4635 158.888265,40.7120577 C158.87555,40.986 158.863894,41.2081154 158.825748,41.8808077 C158.825748,41.9675385 158.777007,42.0542692 158.700715,42.0542692 C158.639258,42.0542692 158.590517,42.0045577 158.575682,41.9051346 C158.551311,41.7570577 158.551311,41.6703269 158.515285,41.5074423 C158.451709,41.2588846 158.31396,41.1086923 157.777801,41.0600385 C157.369854,41.0346538 156.459656,41.0103269 156.111046,41.0103269 C156.04853,41.0103269 156.024159,41.0484038 156.024159,41.1213846 L156.024159,43.3964808 C156.024159,43.4715769 156.036874,43.4959038 156.111046,43.4959038 C156.445881,43.4959038 157.218331,43.4959038 157.654887,43.4832115 C158.265219,43.4588846 158.415682,43.4208077 158.551311,43.2103269 C158.602172,43.1109038 158.650914,43.0728269 158.700715,43.0728269 C158.777007,43.0728269 158.788662,43.1479231 158.788662,43.2103269 C158.788662,43.3340769 158.71343,43.8079231 158.700715,44.2045577 C158.690119,44.4414808 158.677404,45.0126346 158.677404,45.1374423 C158.677404,45.2876346 158.639258,45.3246538 158.564026,45.3246538 C158.50257,45.3246538 158.451709,45.2738846 158.438993,45.1501346 C158.428397,45.0877308 158.428397,45.0126346 158.415682,44.9396538 C158.352106,44.6033077 158.227073,44.4055192 157.642172,44.3663846 C157.293563,44.3420577 156.445881,44.3304231 156.097272,44.3304231 C156.036874,44.3304231 156.024159,44.35475 156.024159,44.4171538 L156.024159,45.2009038 C156.024159,45.5615769 156.009325,46.0692692 156.024159,46.5039808 C156.036874,47.2634038 156.172503,47.4379231 157.444026,47.4379231 C157.72906,47.4379231 158.166675,47.4262885 158.476079,47.3131154 C158.788662,47.1883077 158.912636,46.9281154 159.011179,46.4299423 C159.038728,46.3061923 159.08747,46.2437885 159.161642,46.2437885 C159.249589,46.2437885 159.261245,46.3305192 159.261245,46.4680192 C159.261245,46.93975 159.148927,47.8102308 159.098066,48.0207115 C159.011179,48.2967692 158.924291,48.3084038 158.515285,48.3084038 C156.845351,48.3084038 156.04853,48.246 154.866013,48.246 C154.34257,48.246 153.80747,48.2819615 153.170649,48.2819615 C152.958728,48.2819615 152.908927,48.2216731 152.908927,48.1465769 C152.908927,48.0958077 152.948132,48.0355192 153.134623,48.0355192 C153.245881,48.0207115 153.332768,48.0207115 153.457801,47.9974423 C153.819126,47.9339808 153.856212,47.5130192 153.894358,46.7535962 C153.894358,46.3432115 153.907073,45.7477308 153.907073,45.1501346 L153.907073,43.2610962 Z" id="Fill-25"></path>
                </g>
            </g>
        </g>
    </g>
</svg>