<?xml version="1.0" encoding="UTF-8"?>
<svg width="100px" height="100px" viewBox="0 0 100 100" version="1.1" xmlns="http://www.w3.org/2000/svg" xmlns:xlink="http://www.w3.org/1999/xlink">
    <!-- Generator: Sketch 52.2 (67145) - http://www.bohemiancoding.com/sketch -->
    <title>树</title>
    <desc>Created with Sketch.</desc>
    <g id="Page-1" stroke="none" stroke-width="1" fill="none" fill-rule="evenodd">
        <g id="总览" transform="translate(-958.000000, -441.000000)" fill="#E1E1E1" fill-rule="nonzero">
            <g id="分组-5" transform="translate(254.000000, 331.000000)">
                <g id="分组-3-copy-3" transform="translate(564.000000, 0.000000)">
                    <g id="树" transform="translate(140.000000, 110.000000)">
                        <path d="M99.0487395,59.5 C93.5630252,55.25 89.7983193,49.95 89.7983193,46.4 C89.7983193,43.7 92.1647059,40.95 96.4672269,38.55 C97.3815126,38 97.8117647,37 97.5966387,36.05 C94.9613445,25.6 87.2168067,1.3 70.5445378,0.05 C61.9394958,-0.55 53.8722689,4.5 47.3647059,14.9 C45.1058824,18.55 42.9546218,22.85 41.1260504,27.65 C37.4151261,22.4 33.0588235,19.55 28.2184874,19.2 C23.4319328,18.8 16.3327731,20.55 9.93277311,30.8 C5.84537815,37.3 2.51092437,46.6 0.467226891,57 C-0.715966387,63.05 0.521008403,68.55 3.96302521,72.75 C7.99663866,77.6 14.9344538,80.7 23.3243697,81.4 L23.3243697,94.8 C23.3243697,96.05 24.4,97.05 25.7445378,97.05 C27.0352941,97.05 28.1647059,96 28.1647059,94.75 L28.1647059,81.5 C31.3915966,81.4 34.4571429,80.9 37.307563,80.1 C41.0722689,78.95 44.2453782,77.1 46.6655462,74.8 C51.5596639,77.65 57.6907563,79.4 64.6823529,79.95 L65.0588235,79.95 L65.0588235,97.75 C65.0588235,99 66.1344538,100 67.4789916,100 C68.8235294,100 69.8991597,99 69.8991597,97.75 L69.8991597,80.05 C75.9226891,79.9 81.6235294,78.75 86.3563025,76.65 C93.5092437,73.45 98.1882353,68.3 99.8554622,61.75 C100.070588,60.95 99.8016807,60.05 99.0487395,59.5 Z M28.2184874,77 L28.2184874,51.8 C28.2184874,50.55 27.1428571,49.55 25.7983193,49.55 C24.4537815,49.55 23.3781513,50.55 23.3781513,51.8 L23.3781513,59.45 L17.1932773,56.4 C16.010084,55.8 14.5042017,56.25 13.912605,57.35 C13.2672269,58.45 13.7512605,59.85 14.9344538,60.4 L23.3243697,64.55 L23.3243697,76.9 C16.4403361,76.25 10.9008403,73.85 7.83529412,70.05 C5.14621849,66.85 4.28571429,62.7 5.2,57.85 C8.37310924,41.55 16.1176471,22.9 27.7882353,23.8 C32.897479,24.2 36.7697479,29.2 39.0823529,33.45 C37.5226891,38.25 36.1781513,43.45 35.1563025,48.85 C33.6504202,56.65 35.210084,63.55 39.6201681,68.9 C40.5882353,70.05 41.610084,71.1 42.7932773,72.05 C39.4588235,75 34.2420168,76.8 28.2184874,77 Z M69.9529412,75.55 L69.9529412,49.3 C70.2756303,49.15 70.5445378,49 70.7596639,48.75 L83.0218487,35.85 C83.9361345,34.9 83.7747899,33.5 82.8067227,32.65 C81.7848739,31.8 80.2789916,31.95 79.3647059,32.85 L69.9529412,42.75 L69.9529412,26.7 C69.9529412,25.45 68.8773109,24.45 67.5327731,24.45 C66.1882353,24.45 65.112605,25.45 65.112605,26.7 L65.112605,59.8 L56.7226891,50.45 C55.8084034,49.45 54.302521,49.3 53.2806723,50.1 C52.205042,50.95 52.0436975,52.35 52.9042017,53.3 L63.9294118,65.6 C64.1983193,65.95 64.6285714,66.2 65.0588235,66.3 L65.0588235,75.4 C58.0672269,74.9 52.1512605,73 47.7411765,70 L47.687395,69.95 C47.6336134,69.95 47.6336134,69.9 47.5798319,69.9 C45.9663866,68.8 44.5680672,67.55 43.3848739,66.15 C39.8352941,61.8 38.6521008,56.2 39.8890756,49.65 C43.9764706,28.65 53.9798319,4.6 69.0386555,4.6 L70.1142857,4.6 C79.2033613,5.3 87.3781513,16.85 92.3798319,35.6 C87.4857143,38.75 84.9042017,42.45 84.9042017,46.5 C84.9042017,51.15 88.5613445,57.05 94.692437,62.05 C91.5193277,71.2 80.7630252,75.3 69.9529412,75.55 Z" id="形状"></path>
                    </g>
                </g>
            </g>
        </g>
    </g>
</svg>