<?xml version="1.0" encoding="UTF-8"?>
<svg width="100px" height="100px" viewBox="0 0 100 100" version="1.1" xmlns="http://www.w3.org/2000/svg" xmlns:xlink="http://www.w3.org/1999/xlink">
    <!-- Generator: Sketch 52.2 (67145) - http://www.bohemiancoding.com/sketch -->
    <title>用户 (1)</title>
    <desc>Created with Sketch.</desc>
    <g id="Page-1" stroke="none" stroke-width="1" fill="none" fill-rule="evenodd">
        <g id="用户-(1)" fill="#E1E1E1">
            <path d="M76.6237608,28.5952824 C76.6237608,20.9693057 73.5554603,13.7991972 67.9830237,8.40651662 C62.411205,3.01453364 55.0020929,0.0445129626 47.121402,0.0445129626 C39.241329,0.0445129626 31.832423,3.01453374 26.2603984,8.40701494 C20.6879618,13.7990976 17.6191463,20.969206 17.6191463,28.5951828 C17.6191463,34.5069194 19.470549,40.1795593 22.972735,45.000461 C23.9552337,46.3523188 25.8839799,46.6778251 27.2808996,45.7268204 C28.6778193,44.7764138 29.0142787,42.9100846 28.031574,41.5581273 C25.2653353,37.7503215 23.8036366,33.2679821 23.8036366,28.595083 C23.8036366,16.1521911 34.2638503,6.02930398 47.1212993,6.02930398 C59.9789543,6.02930398 70.4397859,16.1521911 70.4397859,28.595083 C70.4397859,41.0383735 59.9789543,51.1612607 47.1212993,51.1612607 C40.7682189,51.1612607 34.6030905,52.3658135 28.7974906,54.7423283 C23.1920981,57.0366195 18.1583879,60.3211834 13.8360111,64.5036303 C9.51404632,68.6866753 6.12071789,73.557908 3.74933241,78.982581 C1.29349714,84.6010033 0.0488956033,90.567157 0.0488956033,96.7153989 C0.0488956033,98.3682453 1.43345685,99.7081433 3.14078016,99.7081433 C4.84882444,99.7081433 6.23338569,98.3682453 6.23338569,96.7153989 C6.23338569,74.8968093 24.5754231,57.1463508 47.121196,57.1463508 C55.0018869,57.1463508 62.4103811,54.17633 67.9828177,48.7837492 C73.5553574,43.3916665 76.6237608,36.2215581 76.6237608,28.5952824 Z" id="路径"></path>
            <path d="M52.6731382,65.9424958 C52.6731382,67.5953423 54.0570815,68.9352403 55.7650228,68.9352403 L96.8590137,68.9352403 C98.5664401,68.9352403 99.9510013,67.5953423 99.9510013,65.9424958 C99.9510013,64.2901477 98.5664401,62.9503495 96.8590137,62.9503495 L55.7650228,62.9503495 C54.0571846,62.9502498 52.6731382,64.2901477 52.6731382,65.9424958 Z" id="路径"></path>
            <path d="M96.8591168,78.1888481 L55.7651259,78.1888481 C54.0571846,78.1888481 52.6732413,79.5287461 52.6732413,81.1815925 C52.6732413,82.8337413 54.0571846,84.1737389 55.7651259,84.1737389 L96.8591168,84.1737389 C98.5665431,84.1737389 99.9511044,82.8337412 99.9511044,81.1815925 C99.9510013,79.528746 98.5664402,78.1888481 96.8591168,78.1888481 Z" id="路径"></path>
            <path d="M96.8591168,93.4273467 L55.7651259,93.4273467 C54.0571846,93.4273467 52.6732413,94.7672447 52.6732413,96.4200911 C52.6732413,98.0724392 54.0571846,99.4123372 55.7651259,99.4123372 L96.8591168,99.4123372 C98.5665431,99.4123372 99.9511044,98.0724392 99.9511044,96.4200911 C99.9510013,94.7672447 98.5664402,93.4273467 96.8591168,93.4273467 Z" id="路径"></path>
        </g>
    </g>
</svg>