<?xml version="1.0" encoding="UTF-8"?>
<svg width="100px" height="100px" viewBox="0 0 100 100" version="1.1" xmlns="http://www.w3.org/2000/svg" xmlns:xlink="http://www.w3.org/1999/xlink">
    <!-- Generator: Sketch 52.2 (67145) - http://www.bohemiancoding.com/sketch -->
    <title>文章</title>
    <desc>Created with Sketch.</desc>
    <g id="Page-1" stroke="none" stroke-width="1" fill="none" fill-rule="evenodd">
        <g id="总览" transform="translate(-684.000000, -441.000000)" fill="#E1E1E1" fill-rule="nonzero">
            <g id="分组-5" transform="translate(254.000000, 331.000000)">
                <g id="分组-3-copy-2" transform="translate(290.000000, 0.000000)">
                    <g id="文章" transform="translate(140.000000, 110.000000)">
                        <path d="M72.4023952,0 L10.6443114,0 C4.79281437,0 0.119760479,4.02944162 0.119760479,8.92182741 L0.119760479,91.0781726 C0.119760479,96.0395939 4.87305389,100 10.6443114,100 L89.3568862,100 C95.1281437,100 99.8802395,95.9705584 99.8802395,91.0781726 L99.8802395,23.2944162 L72.4023952,0 Z M74.2982036,9.48020305 L88.6958084,21.6862944 L75.8359281,21.6862944 C75.0263473,21.6862944 74.2982036,21.0690355 74.2982036,20.3827411 L74.2982036,9.48020305 Z M93.2994012,91.0781726 C93.3038802,91.966082 92.8898601,92.8187364 92.1493321,93.4466843 C91.4088042,94.0746321 90.4031041,94.4258623 89.3556886,94.422335 L10.6443114,94.422335 C9.59689594,94.4258623 8.59119585,94.0746321 7.85066789,93.4466843 C7.11013994,92.8187364 6.69611983,91.966082 6.7005988,91.0781726 L6.7005988,8.92182741 C6.69644,8.03409356 7.11060147,7.18170107 7.85109448,6.5539735 C8.59158749,5.92624592 9.59710438,5.57515472 10.6443114,5.5786802 L10.6443114,5.51979695 L67.7293413,5.51979695 L67.7293413,20.3918782 C67.7293413,24.1766497 71.3844311,27.2649746 75.8371257,27.2649746 L93.3005988,27.2649746 L93.3005988,91.0781726 L93.2994012,91.0781726 Z M25.5508982,34.0192893 L53.839521,34.0192893 C54.7118266,34.0228178 55.5496254,33.730696 56.1665581,33.207903 C56.7834909,32.6851101 57.1283952,31.9750015 57.1245509,31.235533 C57.1287157,30.495889 56.7839529,29.7855182 56.1669852,29.262505 C55.5500174,28.7394917 54.7120352,28.4472308 53.839521,28.4507614 L25.5508982,28.4507614 C24.6782859,28.4469567 23.8401155,28.7391295 23.2230772,29.2622025 C22.606039,29.7852755 22.2613801,30.4958058 22.2658683,31.235533 C22.262024,31.9750015 22.6069283,32.6851101 23.223861,33.207903 C23.8407937,33.730696 24.6785925,34.0228178 25.5508982,34.0192893 Z M74.3784431,66.8527919 L25.5508982,66.8527919 C23.7233533,66.8527919 22.2658683,68.0893401 22.2658683,69.6375635 C22.2658683,71.1857868 23.7233533,72.422335 25.5508982,72.422335 L74.3784431,72.422335 C76.205988,72.422335 77.6634731,71.1857868 77.6634731,69.6375635 C77.6634731,68.0893401 76.2071856,66.8527919 74.3784431,66.8527919 Z M25.5508982,47.951269 C24.6781878,47.9471899 23.8398288,48.2392745 23.22272,48.7624073 C22.6056112,49.2855402 22.2610563,49.9962303 22.2658683,50.7360406 C22.2617009,51.4755922 22.6065014,52.1858604 23.2235046,52.708713 C23.8405077,53.2315655 24.6784946,53.5235994 25.5508982,53.519797 L74.3784431,53.519797 C75.2508468,53.5235994 76.0888336,53.2315655 76.7058368,52.708713 C77.3228399,52.1858604 77.6676405,51.4755922 77.6634731,50.7360406 C77.6679612,49.9963135 77.3233023,49.2857832 76.7062641,48.7627102 C76.0892259,48.2396371 75.2510554,47.9474643 74.3784431,47.951269 L25.5508982,47.951269 Z" id="形状"></path>
                    </g>
                </g>
            </g>
        </g>
    </g>
</svg>