<?xml version="1.0" encoding="UTF-8"?>
<svg width="110px" height="100px" viewBox="0 0 110 100" version="1.1" xmlns="http://www.w3.org/2000/svg" xmlns:xlink="http://www.w3.org/1999/xlink">
    <!-- Generator: Sketch 52.2 (67145) - http://www.bohemiancoding.com/sketch -->
    <title>书 (2)</title>
    <desc>Created with Sketch.</desc>
    <g id="Page-1" stroke="none" stroke-width="1" fill="none" fill-rule="evenodd">
        <g id="总览" transform="translate(-1496.000000, -441.000000)" fill="#E1E1E1" fill-rule="nonzero">
            <g id="分组-5" transform="translate(254.000000, 331.000000)">
                <g id="分组-3-copy-5" transform="translate(1112.000000, 0.000000)">
                    <g id="书-(2)" transform="translate(130.000000, 110.000000)">
                        <path d="M106.444072,11.6099071 L97.8803132,11.6099071 L97.8803132,8.56037152 L94.9642058,7.12074303 C94.385906,6.82662539 80.5313199,0.0619195046 68.4116331,0.0619195046 C62.7393736,0.0619195046 58.1991051,1.53250774 54.852349,4.44272446 C51.5055928,1.53250774 46.9653244,0.0619195046 41.2930649,0.0619195046 C29.1733781,0.0619195046 15.3187919,6.82662539 14.7404922,7.12074303 L11.836689,8.56037152 L11.836689,11.6099071 L3.44519016,11.6099071 C1.55033557,11.6099071 0,13.5448916 0,15.9442724 L0,95.6656347 C0,98.0495356 1.53803132,100 3.44519016,100 L106.444072,100 C108.338926,100 109.889262,98.0650155 109.889262,95.6656347 L109.889262,15.9442724 C109.876957,13.5448916 108.338926,11.6099071 106.444072,11.6099071 Z M93.2908277,12.4922601 L93.2908277,75.7585139 C86.1912752,72.6934985 67.3165548,65.7585139 57.1409396,73.2352941 L57.1409396,9.52012384 C60.00783,6.82662539 64.0559284,5.83591331 68.4116331,5.83591331 C79.7930649,5.82043344 93.2908277,12.4922601 93.2908277,12.4922601 Z M88.0861298,79.6904025 L57.8545861,79.6904025 C63.7483221,72.6625387 78.3657718,76.0371517 88.0861298,79.6904025 Z M41.2807606,5.82043344 C45.6364653,5.82043344 49.6845638,6.81114551 52.5514541,9.50464396 L52.5514541,73.2198142 C42.3635347,65.7430341 23.5011186,72.6780186 16.401566,75.7430341 L16.401566,12.4922601 C16.401566,12.4922601 29.8870246,5.82043344 41.2807606,5.82043344 Z M51.8255034,79.6904025 L21.5816555,79.6904025 C31.3143177,76.0371517 45.9317673,72.6470588 51.8255034,79.6904025 Z M104.997857,93.3312693 L4.89038031,93.3312693 L4.89038031,18.2631579 L12.0168674,18.2631579 L12.0168674,85.4643963 L97.6791271,85.4643963 L97.6791271,18.2631579 L105.02349,18.2631579 L105.02349,91.3312693 L104.997857,93.3312693 Z" id="形状"></path>
                    </g>
                </g>
            </g>
        </g>
    </g>
</svg>