<?xml version="1.0" encoding="UTF-8"?>
<svg width="16px" height="15px" viewBox="0 0 16 15" version="1.1" xmlns="http://www.w3.org/2000/svg" xmlns:xlink="http://www.w3.org/1999/xlink">
    <!-- Generator: Sketch 52.2 (67145) - http://www.bohemiancoding.com/sketch -->
    <title>用户 (4)</title>
    <desc>Created with Sketch.</desc>
    <g id="Page-1" stroke="none" stroke-width="1" fill="none" fill-rule="evenodd">
        <g id="总览" transform="translate(-26.000000, -239.000000)" fill="#C9C9C9" fill-rule="nonzero">
            <g id="用户管理" transform="translate(0.000000, 226.000000)">
                <g id="用户-(4)" transform="translate(26.000000, 13.000000)">
                    <path d="M8.02236849,8.65221625 C7.54097671,8.63221003 6.88794044,8.36879479 5.94388889,8.12818747 C4.73718954,7.37448844 3.92223856,5.9692344 3.92223856,4.35350178 C3.92223856,1.95002213 5.72370915,0 7.94409314,0 C10.1644771,0 11.9659477,1.94847449 11.9659477,4.35350178 C11.9673775,5.9692344 11.1524265,7.37448844 9.94572712,8.12663983 C9.00166621,8.36129246 8.72657296,8.60794322 8.02236849,8.65221625 Z M4.8,4.4275 C4.8,6.30205782 6.20794637,7.82 7.94666667,7.82 C9.68538696,7.82 11.0933333,6.30205782 11.0933333,4.4275 C11.0933333,2.55294218 9.68394881,1.035 7.94666667,1.035 C6.20938452,1.035 4.8,2.55294218 4.8,4.4275 Z" id="形状"></path>
                    <path d="M13.5466667,14.7855282 C13.5466667,10.9084303 11.0394613,7.76542145 7.94666667,7.76542145 C4.85387207,7.76542145 2.34666667,10.9084303 2.34666667,14.7855282 C13.5212381,14.7925881 2.38255066,14.8142244 13.5466667,14.7855282 Z" id="椭圆形"></path>
                    <path d="M3.59657937,1.59279916 C2.88983466,2.14603363 2.4115172,3.15487295 2.4115172,4.32236039 C2.4115172,5.45120278 2.86223942,6.4274989 3.53219048,6.98683522 L3.51379365,7.02954817 C3.71922487,7.21667159 3.86333333,7.51566228 3.86333333,7.87160357 C3.86333333,8.29669918 3.6686336,8.66077627 3.39268122,8.82145834 L3.40034656,8.84586574 C1.9791918,9.49672982 0.973498677,11.1015166 0.973498677,12.9829205 L0.958167989,12.9829205 C0.958167989,13.3347939 0.74353836,13.617513 0.47831746,13.617513 C0.213096561,13.617513 0,13.33276 0,12.9829205 C0,12.9259699 0.013797619,12.8751212 0.0245291005,12.8202045 C0.0766534392,10.6093006 1.17433069,8.71365898 2.7549246,7.81872087 C1.96846032,7.00514077 1.45334921,5.74815952 1.45334921,4.32236039 C1.45334921,2.73791315 2.08803968,1.36906464 3.02781085,0.57989194 C3.11519577,0.461922826 3.23477513,0.386666667 3.36968519,0.386666667 C3.63490608,0.386666667 3.84800265,0.671419701 3.84800265,1.02125914 C3.84800265,1.26736712 3.74375397,1.4727961 3.59198016,1.57856151 C3.59351323,1.58262941 3.5950463,1.58669731 3.59657937,1.59279916 Z" id="路径"></path>
                    <path d="M12.3200873,1.59279916 C12.3216204,1.58669731 12.3231534,1.58262941 12.3246865,1.57856151 C12.1729127,1.4727961 12.068664,1.26736712 12.068664,1.02125914 C12.068664,0.671419701 12.2817606,0.386666667 12.5469815,0.386666667 C12.6818915,0.386666667 12.8014709,0.461922826 12.8888558,0.57989194 C13.828627,1.36906464 14.4633175,2.73791315 14.4633175,4.32236039 C14.4633175,5.74815952 13.9482063,7.00514077 13.1617421,7.81872087 C14.742336,8.71365898 15.8400132,10.6093006 15.8921376,12.8202045 C15.902869,12.8751212 15.9166667,12.9259699 15.9166667,12.9829205 C15.9166667,13.33276 15.7035701,13.617513 15.4383492,13.617513 C15.1731283,13.617513 14.9584987,13.3347939 14.9584987,12.9829205 L14.943168,12.9829205 C14.943168,11.1015166 13.9374749,9.49672982 12.5163201,8.84586574 L12.5239854,8.82145834 C12.2480331,8.66077627 12.0533333,8.29669918 12.0533333,7.87160357 C12.0533333,7.51566228 12.1974418,7.21667159 12.402873,7.02954817 L12.3844762,6.98683522 C13.0544272,6.4274989 13.5051495,5.45120278 13.5051495,4.32236039 C13.5051495,3.15487295 13.026832,2.14603363 12.3200873,1.59279916 Z" id="路径-copy"></path>
                </g>
            </g>
        </g>
    </g>
</svg>