<?xml version="1.0" encoding="UTF-8"?>
<svg width="16px" height="16px" viewBox="0 0 16 16" version="1.1" xmlns="http://www.w3.org/2000/svg" xmlns:xlink="http://www.w3.org/1999/xlink">
    <!-- Generator: Sketch 52.2 (67145) - http://www.bohemiancoding.com/sketch -->
    <title>权限</title>
    <desc>Created with Sketch.</desc>
    <g id="Page-1" stroke="none" stroke-width="1" fill="none" fill-rule="evenodd">
        <g id="总览" transform="translate(-26.000000, -197.000000)" fill="#C9C9C9" fill-rule="nonzero">
            <g id="权限管理" transform="translate(0.000000, 185.000000)">
                <g id="权限" transform="translate(26.000000, 12.000000)">
                    <path d="M9.65321366,6.74640625 C10.315785,6.46512664 11.0282679,6.32063616 11.7479649,6.32159375 C11.8198946,6.32159375 11.8914185,6.32479687 11.9633483,6.32479687 C12.3038283,5.46240625 12.3909307,4.444 12.2195044,3.45359375 C11.8230946,1.18240625 9.68117073,-0.336 7.43058732,0.064 C5.18278244,0.464 3.2846361,2.21359375 3.68424585,4.48479687 C3.76855415,4.97520313 4.00593171,5.74079688 4.28684488,6.29359375 L0.203239024,12.1887969 C0.0533853659,12.4044062 -0.0341229268,12.7952031 0.0126282927,13.0607969 L0.190439024,14.0695937 C0.0218068293,13.098 0.237190244,14.4195937 0.368265366,14.4164062 L1.71374829,14.4352031 C1.97269854,14.3884062 2.29758439,14.1695937 2.44103805,13.9475937 L4.05505561,11.4204062 L4.07064976,11.4047969 L5.48166244,11.5172031 L7.36702439,8.55879688 C7.37342439,8.55879688 7.37982439,8.562 7.38580293,8.562 C7.55445073,8.33079688 7.73866146,8.112 7.9444761,7.90559375 C8.43220516,7.41030266 9.01290083,7.01636194 9.65319805,6.74640625 L9.65321366,6.74640625 Z M1.08678244,12.8104063 L0.886977561,12.8947969 L0.908956098,12.676 L4.82072976,6.9931875 L5.05490732,7.212 L1.08678244,12.8104063 Z M7.03097756,2.354 C7.64917073,1.46359375 8.86637268,1.24159375 9.7467161,1.87 C10.630693,2.50085439 10.8448046,3.72530851 10.2274498,4.61920312 C9.60925659,5.50959375 8.97866927,4.88159375 8.09512585,4.25679687 C7.2152039,3.62879687 6.41276878,3.24759375 7.03097756,2.354 Z" id="形状"></path>
                    <path d="M11.6952195,7.41520312 C9.32553366,7.41520312 7.40581463,9.33640625 7.40581463,11.708 C7.40581463,14.0792031 9.32553366,16 11.6952195,16 C14.0649054,16 15.9846244,14.0787969 15.9846244,11.708 C15.9846244,9.33640625 14.0644995,7.4151875 11.6952195,7.4151875 L11.6952195,7.41520312 Z M14.174002,13.4695937 C14.174002,14.1104063 12.9472,14.2572031 11.795122,14.2572031 C10.6430439,14.2572031 9.40066341,14.1104063 9.40066341,13.4695937 L9.40066341,13.292 C9.40066341,12.82 10.2498341,12.342 10.9711298,12.0827969 C11.0242654,12.064 11.2740215,11.9263906 11.133362,11.5612031 C10.7745093,11.1955938 10.5059746,10.602 10.5059746,10.018 C10.5059746,9.12440625 11.0961951,8.656 11.7891278,8.656 C12.4792351,8.656 13.0754654,9.12440625 13.0754654,10.018 C13.0754654,10.5992031 12.8037307,11.1895938 12.448078,11.5584063 L12.451278,11.5584063 C12.3138185,11.9735938 12.532402,12.0735938 12.566759,12.0832031 C13.3252371,12.3332031 14.1775922,12.8084063 14.1775922,13.2924063 L14.174002,13.4695938 Z" id="形状"></path>
                </g>
            </g>
        </g>
    </g>
</svg>