<?xml version="1.0" encoding="UTF-8"?>
<svg width="16px" height="16px" viewBox="0 0 16 16" version="1.1" xmlns="http://www.w3.org/2000/svg" xmlns:xlink="http://www.w3.org/1999/xlink">
    <!-- Generator: Sketch 52.2 (67145) - http://www.bohemiancoding.com/sketch -->
    <title>文章 (2)</title>
    <desc>Created with Sketch.</desc>
    <g id="组件" stroke="none" stroke-width="1" fill="none" fill-rule="evenodd">
        <g id="文章-(2)" fill="#C9C9C9" fill-rule="nonzero">
            <path d="M14.50289,0.00398086124 L3.48876555,0.00398086124 C2.66564593,0.00398086124 1.999311,0.670315789 1.999311,1.49343541 L1.999311,2.51253589 L1.48976077,2.51253589 C0.666641148,2.51253589 0.000306220096,3.17887081 0.000306220096,4.00199043 L0.000306220096,13.9970144 C0.000306220096,15.0945072 0.901818182,15.9960191 1.999311,15.9960191 L13.9933397,15.9960191 C15.0908325,15.9960191 15.9923445,15.0945072 15.9923445,13.9970144 L15.9923445,1.49343541 C15.9923445,0.670315789 15.3260096,0.00398086124 14.50289,0.00398086124 Z M15.0124402,13.9970144 C15.0124402,14.5457608 14.5812823,15.0161148 13.9933397,15.0161148 L1.999311,15.0161148 C1.45056459,15.0161148 0.980210526,14.5849569 0.980210526,13.9970144 L0.980210526,4.00199043 C0.980210526,3.72761722 1.21538756,3.49244019 1.48976077,3.49244019 L1.999311,3.49244019 L1.999311,13.4874641 C1.999311,13.7618373 2.23448804,13.9970144 2.50886124,13.9970144 C2.78323445,13.9970144 3.01841148,13.7618373 3.01841148,13.4874641 L3.01841148,1.49343541 C3.01841148,1.2190622 3.25358852,0.983885167 3.52796172,0.983885167 L14.5420861,0.983885167 C14.8164593,0.983885167 15.0516364,1.2190622 15.0516364,1.49343541 L15.0516364,13.9970144 L15.0124402,13.9970144 Z" id="形状"></path>
            <path d="M9.76015311,6.51054545 L13.7581627,6.51054545 C13.9149474,6.51054545 13.9933397,6.39295694 13.9933397,6.27536842 C13.9933397,6.11858373 13.8757512,6.04019139 13.7581627,6.04019139 L9.76015311,6.04019139 C9.60336842,6.04019139 9.52497608,6.1577799 9.52497608,6.27536842 C9.52497608,6.39295694 9.60336842,6.51054545 9.76015311,6.51054545 Z M9.76015311,4.98189474 L13.7581627,4.98189474 C13.9149474,4.98189474 13.9933397,4.86430622 13.9933397,4.7467177 C13.9933397,4.58993301 13.8757512,4.51154067 13.7581627,4.51154067 L9.76015311,4.51154067 C9.60336842,4.51154067 9.52497608,4.62912919 9.52497608,4.7467177 C9.52497608,4.90350239 9.60336842,4.98189474 9.76015311,4.98189474 Z M9.76015311,3.49244019 L13.7581627,3.49244019 C13.9149474,3.49244019 13.9933397,3.37485167 13.9933397,3.25726316 C13.9933397,3.10047847 13.8757512,3.02208612 13.7581627,3.02208612 L9.76015311,3.02208612 C9.60336842,3.02208612 9.52497608,3.13967464 9.52497608,3.25726316 C9.52497608,3.37485167 9.60336842,3.49244019 9.76015311,3.49244019 Z M8.27069856,13.4874641 L4.272689,13.4874641 C4.11590431,13.4874641 4.03751196,13.6050526 4.03751196,13.7226411 C4.03751196,13.8794258 4.15510048,13.9578182 4.272689,13.9578182 L8.27069856,13.9578182 C8.42748325,13.9578182 8.5058756,13.8402297 8.5058756,13.7226411 C8.5058756,13.6050526 8.38828708,13.4874641 8.27069856,13.4874641 Z M8.27069856,11.9980096 L4.272689,11.9980096 C4.11590431,11.9980096 4.03751196,12.1155981 4.03751196,12.2331866 C4.03751196,12.3899713 4.15510048,12.4683636 4.272689,12.4683636 L8.27069856,12.4683636 C8.42748325,12.4683636 8.5058756,12.3507751 8.5058756,12.2331866 C8.5058756,12.1155981 8.38828708,11.9980096 8.27069856,11.9980096 Z M8.27069856,10.508555 L4.272689,10.508555 C4.11590431,10.508555 4.03751196,10.6261435 4.03751196,10.7437321 C4.03751196,10.9005167 4.15510048,10.9789091 4.272689,10.9789091 L8.27069856,10.9789091 C8.42748325,10.9789091 8.5058756,10.8613206 8.5058756,10.7437321 C8.5058756,10.6261435 8.38828708,10.508555 8.27069856,10.508555 Z M13.7581627,13.4874641 L9.76015311,13.4874641 C9.60336842,13.4874641 9.52497608,13.6050526 9.52497608,13.7226411 C9.52497608,13.8794258 9.64256459,13.9578182 9.76015311,13.9578182 L13.7581627,13.9578182 C13.9149474,13.9578182 13.9933397,13.8402297 13.9933397,13.7226411 C13.9933397,13.6050526 13.9149474,13.4874641 13.7581627,13.4874641 Z M13.7581627,11.9980096 L9.76015311,11.9980096 C9.60336842,11.9980096 9.52497608,12.1155981 9.52497608,12.2331866 C9.52497608,12.3899713 9.64256459,12.4683636 9.76015311,12.4683636 L13.7581627,12.4683636 C13.9149474,12.4683636 13.9933397,12.3507751 13.9933397,12.2331866 C13.9933397,12.1155981 13.9149474,11.9980096 13.7581627,11.9980096 Z M13.7581627,10.508555 L9.76015311,10.508555 C9.60336842,10.508555 9.52497608,10.6261435 9.52497608,10.7437321 C9.52497608,10.9005167 9.64256459,10.9789091 9.76015311,10.9789091 L13.7581627,10.9789091 C13.9149474,10.9789091 13.9933397,10.8613206 13.9933397,10.7437321 C13.9933397,10.6261435 13.9149474,10.508555 13.7581627,10.508555 Z M13.7581627,7.49044976 L4.272689,7.49044976 C4.11590431,7.49044976 4.03751196,7.60803828 4.03751196,7.72562679 C4.03751196,7.88241148 4.15510048,7.96080383 4.272689,7.96080383 L13.7581627,7.96080383 C13.9149474,7.96080383 13.9933397,7.84321531 13.9933397,7.72562679 C13.9933397,7.60803828 13.9149474,7.49044976 13.7581627,7.49044976 Z M13.7581627,9.01910048 L4.272689,9.01910048 C4.11590431,9.01910048 4.03751196,9.136689 4.03751196,9.25427751 C4.03751196,9.4110622 4.15510048,9.48945455 4.272689,9.48945455 L13.7581627,9.48945455 C13.9149474,9.48945455 13.9933397,9.37186603 13.9933397,9.25427751 C13.9933397,9.09749282 13.9149474,9.01910048 13.7581627,9.01910048 Z M4.50786603,6.51054545 L7.99632536,6.51054545 C8.27069856,6.51054545 8.5058756,6.27536842 8.5058756,6.00099522 L8.5058756,2.51253589 C8.5058756,2.23816268 8.27069856,2.00298565 7.99632536,2.00298565 L4.50786603,2.00298565 C4.23349282,2.00298565 3.99831579,2.23816268 3.99831579,2.51253589 L3.99831579,6.00099522 C3.99831579,6.27536842 4.23349282,6.51054545 4.50786603,6.51054545 Z" id="形状"></path>
        </g>
    </g>
</svg>