<?xml version="1.0" encoding="UTF-8"?>
<svg width="38px" height="36px" viewBox="0 0 38 36" version="1.1" xmlns="http://www.w3.org/2000/svg" xmlns:xlink="http://www.w3.org/1999/xlink">
    <!-- Generator: Sketch 52.2 (67145) - http://www.bohemiancoding.com/sketch -->
    <title>识别</title>
    <desc>Created with Sketch.</desc>
    <g id="总览" stroke="none" stroke-width="1" fill="none" fill-rule="evenodd">
        <g id="用户管理-用户主页" transform="translate(-1576.000000, -295.000000)" fill="#DEDEDE" fill-rule="nonzero">
            <g id="分组" transform="translate(270.000000, 110.000000)">
                <g id="分组-9" transform="translate(19.000000, 153.000000)">
                    <g id="分组-8-copy-10" transform="translate(1218.000000, 0.000000)">
                        <g id="识别" transform="translate(69.000000, 32.000000)">
                            <path d="M29.7369876,17.1507984 L29.7369876,16.0320223 C29.7369876,9.33207954 25.4271572,4.84426205 19.0323352,4.84426205 C12.6375132,4.84426205 8.31496937,9.33207954 8.31496937,16.0320223 L8.31496937,17.1507984 C8.27926437,17.4182642 8.34256594,17.6895567 8.49295646,17.9136002 C9.1540514,24.2702822 13.3494615,31.0465052 19.0323352,31.0465052 C24.7152089,31.0465052 28.910619,24.2448555 29.5717139,17.8754601 C29.6862079,17.6514079 29.7430134,17.4023376 29.7369876,17.1507984 Z M20.1383978,28.7326729 L20.1383978,21.4606288 C22.4491786,21.4715758 24.7406891,21.0400296 26.8891941,20.1892924 C25.872125,24.4355559 23.1387517,27.9698711 20.1383978,28.7326729 Z M20.1383978,12.9935284 L20.1383978,7.10724085 C23.9804584,7.45247013 27.0058887,10.5317338 27.2833084,14.379285 C25.0121795,13.4647879 22.5867301,12.9943716 20.1383978,12.9935284 Z M27.4994356,17.0618048 C27.1688881,17.8373201 24.6643554,18.9942362 20.1383978,19.19765 L20.1383978,15.0785201 C24.6897821,15.2565072 27.1561747,16.4515634 27.4994356,17.0618048 Z M10.7940753,14.201298 C11.2229315,10.4681719 14.1781834,7.52875172 17.9135591,7.1199542 L17.9135591,12.8536814 C15.4833721,12.9171273 13.0793313,13.3721779 10.7940753,14.201298 Z M17.9135591,15.0785201 L17.9135591,19.2103633 C13.400315,19.0705163 11.0356293,17.7991799 10.7177951,17.2397919 L10.7177951,17.0618048 C11.061056,16.4515634 13.4893085,15.2565072 17.9135591,15.0785201 Z M17.9135591,21.435202 L17.9135591,28.7326729 C15.1039057,27.9698711 12.3832458,24.4609827 11.1881896,20.1257255 C13.345378,20.9213855 15.6157109,21.367727 17.9135591,21.4479154 L17.9135591,21.435202 Z M1.47517956,11.1119505 C1.82982458,11.1041919 2.1674109,10.9582086 2.41596849,10.7051229 C2.66822148,10.4580912 2.80638589,10.1172856 2.7973694,9.76433392 L2.7973694,2.69570356 L9.68801268,2.69570356 C10.0853699,2.70119471 10.4656163,2.53425725 10.7305085,2.23802244 C10.970476,1.97713949 11.0822492,1.62319104 11.0356293,1.27180679 C11.0241835,0.932764656 10.877712,0.612358168 10.6288016,0.381871325 C10.3800702,0.140014785 10.0476458,0.00340199747 9.70072603,0.000470407749 L1.39889936,0.000470407749 C1.02691489,-0.00968952735 0.669154181,0.143636488 0.419970356,0.420011406 C0.189234764,0.670922256 0.0780173267,1.00920861 0.114849601,1.34808698 L0.114849601,9.78976066 C0.112435273,10.146551 0.260060681,10.4879348 0.521677251,10.7305496 C0.77173851,10.9861074 1.11785397,11.1245535 1.47517956,11.1119505 Z M9.68801268,33.2077771 L2.74651594,33.2077771 L2.74651594,26.4188407 C2.71444519,25.7304225 2.16359776,25.1795751 1.47517956,25.1475043 L1.32261917,25.1475043 C0.965828816,25.14509 0.624445065,25.2927154 0.38183024,25.554332 C0.12957725,25.8013636 -0.0085871624,26.1421692 0.000429322878,26.4951209 L0.000429322878,34.5808204 C-0.00198500553,34.9376107 0.145640402,35.2789945 0.407256972,35.5216093 C0.653378923,35.7659463 0.988635952,35.8991306 1.33533255,35.8902969 L9.68801268,35.8902969 C10.1983773,35.940044 10.6927501,35.6958332 10.9633882,35.2602854 C11.2340264,34.8247376 11.2340264,34.2733363 10.9633882,33.8377885 C10.6927501,33.4022408 10.1983773,33.1580299 9.68801268,33.2077771 Z M36.5894908,0.000470407749 L27.4994356,0.000470407749 C27.1438713,-0.000669366341 26.804078,0.147143745 26.5625036,0.408044126 C26.3209292,0.668944507 26.1996521,1.01908746 26.2280992,1.37351372 C26.26017,2.0619319 26.8110174,2.61277933 27.4994356,2.64485009 L35.3054411,2.64485009 L35.3054411,9.78976066 C35.2997386,10.1446207 35.4426275,10.4857104 35.6995553,10.7305496 C35.9482867,10.9724061 36.2807112,11.1090189 36.6276309,11.1119505 C36.981697,11.1015646 37.3183444,10.9559873 37.5684198,10.7051229 C37.8160123,10.4559299 37.9494637,10.1153987 37.9371074,9.76433392 L37.9371074,1.34808698 C37.9371074,0.990676839 37.7951268,0.647905285 37.5423996,0.395178152 C37.2896725,0.142451019 36.9469009,0.000470398452 36.5894908,0.000470407749 Z M36.6276309,25.1093642 C36.2691802,25.1059338 35.9244119,25.2468126 35.6709373,25.5002872 C35.4174627,25.7537618 35.276584,26.09853 35.2800143,26.4569808 L35.2800143,33.2077771 L27.5630024,33.2077771 C27.0526378,33.1580299 26.558265,33.4022408 26.2876269,33.8377885 C26.0169887,34.2733363 26.0169887,34.8247376 26.2876269,35.2602854 C26.558265,35.6958332 27.0526378,35.940044 27.5630024,35.8902969 L36.6911977,35.8902969 C37.0631822,35.9004568 37.4209429,35.7471308 37.6701267,35.4707559 C37.8973709,35.2229054 38.0083325,34.8900205 37.9752475,34.5553936 L37.9752475,26.4569808 C37.9752475,25.7127127 37.371899,25.1093642 36.6276309,25.1093642 Z" id="形状"></path>
                        </g>
                    </g>
                </g>
            </g>
        </g>
    </g>
</svg>