<?xml version="1.0" encoding="UTF-8"?>
<svg width="38px" height="38px" viewBox="0 0 38 38" version="1.1" xmlns="http://www.w3.org/2000/svg" xmlns:xlink="http://www.w3.org/1999/xlink">
    <!-- Generator: Sketch 52.2 (67145) - http://www.bohemiancoding.com/sketch -->
    <title>交易</title>
    <desc>Created with Sketch.</desc>
    <g id="总览" stroke="none" stroke-width="1" fill="none" fill-rule="evenodd">
        <g id="用户管理-用户主页" transform="translate(-1816.000000, -293.000000)" fill="#DEDEDE">
            <g id="分组" transform="translate(270.000000, 110.000000)">
                <g id="分组-9" transform="translate(19.000000, 153.000000)">
                    <g id="分组-8-copy-12" transform="translate(1458.000000, 0.000000)">
                        <g id="交易" transform="translate(69.000000, 30.000000)">
                            <path d="M36.8442356,6.21540439 C36.2060508,6.21540439 35.6888422,6.72300761 35.6888421,7.34902807 L35.6888421,9.36304874 C32.320978,3.76038789 26.1098015,0 18.9999814,0 C9.75839106,0 2.03579044,6.35277287 0.104213145,14.847997 C0.0387553984,14.9902609 0,15.1469885 0,15.3133216 C0,15.9393421 0.517468229,16.4468711 1.15569018,16.4468711 C1.79387505,16.4468711 2.31115785,15.9393421 2.31115788,15.3133216 L2.31134332,15.3133216 C4.02436978,7.81846927 10.8431719,2.21655013 18.9999814,2.21655017 C27.1566798,2.21655017 33.9754819,7.81846931 35.688805,15.3133216 C35.688805,15.9393421 36.2060137,16.4468711 36.8444581,16.4468711 C37.482643,16.4468711 37.9998516,15.9393421 37.9998516,15.3133216 L37.9998516,7.34921351 C37.9998887,6.7229705 37.4824947,6.21540435 36.8442356,6.21540439 Z M36.8442356,21.5526838 C36.2060508,21.5526838 35.6888422,22.06025 35.6888421,22.6864188 C33.975519,30.1812711 27.1566798,35.7831903 19.0000186,35.7831903 C10.8432089,35.7831903 4.02422141,30.1812711 2.31115788,22.6864188 C2.31115788,22.0602129 1.79383798,21.5526838 1.15550478,21.5526838 C0.517468229,21.5526838 0,22.0602129 0,22.6864188 L0,30.6507494 C0,31.276807 0.517282793,31.7842989 1.15550478,31.7842989 C1.79383798,31.7842989 2.31115788,31.2767699 2.31115788,30.6507494 L2.31115788,28.6369142 C5.67894785,34.2393525 11.8899389,37.9997404 19.0000186,37.9997404 C28.2415348,37.9997404 35.9641725,31.6469675 37.8955273,23.1519288 C37.9612817,23.0095166 37.9997404,22.8527889 37.9997404,22.6864188 C37.9998887,22.0602129 37.4824947,21.5526838 36.8442356,21.5526838 Z" id="形状" fill-rule="nonzero"></path>
                            <path d="M24.4711706,23.9086793 C24.4703918,23.9086793 24.4697242,23.908976 24.4690567,23.908976 L24.4690567,23.8961812 L20.2236883,23.8961812 L20.2236883,21.3156639 L24.4690937,21.3156639 L24.4690937,21.3019048 C24.4697613,21.3019048 24.4703918,21.3020902 24.4712077,21.3020902 C24.9797381,21.3020902 25.392066,20.8898735 25.392066,20.3814173 C25.392066,19.8728128 24.9797381,19.460596 24.4712077,19.4605961 L24.4690937,19.4606702 L24.4690937,19.4605961 L20.8538996,19.4605961 L24.8193018,12.1601142 L24.8178554,12.1594096 C24.9626041,11.9624802 25.0506846,11.7216403 25.0506846,11.4584001 C25.0506846,10.8020058 24.5185672,10.2698513 23.8620987,10.2698513 C23.3485987,10.2698513 22.9153169,10.5972882 22.7491321,11.0531928 L22.7404168,11.0531928 C22.7404168,11.0531928 19.3119162,17.7488677 19.1534084,18.2007669 L19.1059747,18.2007669 C18.8839377,17.6378677 15.3600877,11.0531928 15.3600877,11.0531928 L15.3511128,11.0531928 C15.1898606,10.5978074 14.7598794,10.2698513 14.249198,10.2698513 C13.6012965,10.2698513 13.0760401,10.7951448 13.0760401,11.4430463 C13.0756791,11.6766292 13.1453467,11.9049574 13.2760477,12.0985506 L13.2702251,12.1016659 L17.2151184,19.4605961 L13.5288665,19.4605961 C13.020262,19.4605961 12.6080082,19.8728128 12.6080082,20.3814173 C12.6080082,20.890059 13.0202619,21.3022756 13.5288665,21.3022756 L13.5288665,21.3156639 L17.9048165,21.3156639 L17.9048165,23.8961812 L13.5288294,23.8961812 L13.5288294,23.9088648 C13.0202249,23.9088648 12.6079711,24.3210814 12.6079711,24.8295377 C12.6079711,25.3381422 13.0202248,25.7503589 13.5288294,25.7503589 L13.5288294,25.763265 L17.9047794,25.763265 L17.9047794,29.4734378 L17.9299982,29.4734378 C17.9139185,29.5509337 17.9057669,29.6298648 17.9056695,29.7090113 C17.9056695,30.3477525 18.4235086,30.8654433 19.0621385,30.8654433 C19.7008425,30.8654433 20.2185704,30.3477525 20.2185704,29.7090113 C20.2185704,29.6281998 20.2100776,29.5494651 20.1942787,29.4734378 L20.2237254,29.4734378 L20.2237254,25.7630796 L24.4691309,25.7630796 L24.4691309,25.7500993 C24.4697984,25.7500993 24.4704289,25.7503589 24.4712448,25.7503589 C24.9797752,25.7503589 25.3921031,25.3381422 25.3921031,24.8295377 C25.3920289,24.3210814 24.979701,23.9086793 24.4711706,23.9086793 Z" id="路径"></path>
                        </g>
                    </g>
                </g>
            </g>
        </g>
    </g>
</svg>