<?xml version="1.0" encoding="UTF-8"?>
<svg width="38px" height="39px" viewBox="0 0 38 39" version="1.1" xmlns="http://www.w3.org/2000/svg" xmlns:xlink="http://www.w3.org/1999/xlink">
    <!-- Generator: Sketch 52.2 (67145) - http://www.bohemiancoding.com/sketch -->
    <title>关注 (5)</title>
    <desc>Created with Sketch.</desc>
    <g id="总览" stroke="none" stroke-width="1" fill="none" fill-rule="evenodd">
        <g id="用户管理-用户主页" transform="translate(-497.000000, -292.000000)" fill="#DEDEDE" fill-rule="nonzero">
            <g id="分组" transform="translate(270.000000, 110.000000)">
                <g id="分组-9" transform="translate(19.000000, 153.000000)">
                    <g id="分组-8-copy" transform="translate(138.000000, 0.000000)">
                        <g id="关注-(5)" transform="translate(70.000000, 29.000000)">
                            <path d="M36.7333333,31.856555 L31.0333333,31.856555 L31.0333333,37.6112875 C31.0333333,38.4333921 30.4,38.8444444 29.7666667,38.8444444 C29.1333333,38.8444444 28.5,38.227866 28.5,37.6112875 L28.5,31.856555 L22.8,31.856555 C22.1666667,31.856555 21.5333333,31.2399765 21.5333333,30.623398 C21.5333333,30.0068195 22.1666667,29.390241 22.8,29.390241 L28.5,29.390241 L28.5,23.6355085 C28.5,22.8134039 29.1333333,22.4023516 29.7666667,22.4023516 C30.4,22.4023516 31.0333333,23.0189301 31.0333333,23.6355085 L31.0333333,29.390241 L36.7333333,29.390241 C37.3666666,29.390241 38,30.0068195 38,30.623398 C38,31.2399765 37.3666667,31.856555 36.7333333,31.856555 Z M17.7333333,23.0189301 C11.1888889,23.0189301 2.74444445,29.390241 2.74444445,36.994709 C2.74444445,37.8168137 2.11111112,38.227866 1.47777778,38.227866 C1.05555558,38.227866 0.844444454,38.0223398 0.633333331,37.8168137 C0.211111123,37.6112875 0,37.4057613 0,36.994709 C0,30.8289241 5.27777777,23.6355085 12.4555556,21.3747208 C8.86666667,19.3194591 6.96666668,15.8255144 6.96666668,11.509465 C7.1777778,5.13815402 12.2444444,0 18.5777778,0 C24.9111111,0 29.9777778,5.13815402 29.9777778,11.509465 C29.9777778,17.880776 24.9111111,23.01893 18.5777778,23.0189301 L17.7333333,23.0189301 Z M18.5777778,2.6718401 C13.7222222,2.6718401 9.71111112,6.57683716 9.71111112,11.509465 C9.71111112,16.4420929 13.7222222,20.3470899 18.5777778,20.34709 C23.4333333,20.34709 27.4444444,16.4420929 27.4444444,11.509465 C27.4444444,6.7823633 23.4333333,2.6718401 18.5777778,2.6718401 Z" id="形状"></path>
                        </g>
                    </g>
                </g>
            </g>
        </g>
    </g>
</svg>