<?xml version="1.0" encoding="UTF-8"?>
<svg width="31px" height="38px" viewBox="0 0 31 38" version="1.1" xmlns="http://www.w3.org/2000/svg" xmlns:xlink="http://www.w3.org/1999/xlink">
    <!-- Generator: Sketch 52.2 (67145) - http://www.bohemiancoding.com/sketch -->
    <title>操作 copy</title>
    <desc>Created with Sketch.</desc>
    <g id="总览" stroke="none" stroke-width="1" fill="none" fill-rule="evenodd">
        <g id="分组-9" transform="translate(-1722.000000, -30.000000)" fill="#DEDEDE" fill-rule="nonzero">
            <g id="分组-8-copy-13" transform="translate(1578.000000, 0.000000)">
                <g id="操作-copy" transform="translate(144.000000, 30.000000)">
                    <path d="M29.2943583,16.6155 C28.5571583,15.8428333 27.5463583,15.4185 26.449425,15.4185 L26.363925,15.4185 C25.9015917,15.4185 25.4683917,15.4945 25.0446917,15.6477667 C24.329025,14.4374667 23.0610917,13.6901333 21.625325,13.6901333 C21.1458917,13.6901333 20.6702583,13.7705667 20.2243917,13.9320667 C19.508725,12.7173333 18.2369917,11.9662 16.8018583,11.9662 C16.5187583,11.9662 16.2489583,12.0168667 16.0006917,12.0979333 L16.0006917,9.7964 C15.9972823,8.71993928 15.599353,7.68207844 14.882225,6.87926665 C14.124125,6.0382 13.100025,5.57523331 12.007525,5.57523335 C9.784525,5.57523335 7.903525,7.5069 7.903525,9.7964 L7.903525,20.6878333 L7.19609165,19.9873667 C6.43355831,19.2400333 5.37145831,18.8448333 4.206125,18.8746 C3.10919165,18.9043667 2.08509165,19.3078 1.39539165,19.9918 C0.664595366,20.7223025 0.189800573,21.6696703 0.0419583457,22.6923333 C-0.125241654,23.9235333 0.264258346,25.0787333 1.147125,25.9578 L10.4526917,35.1170667 C10.662325,35.3248 10.9067917,35.5160667 11.1721583,35.6775667 C12.9112917,37.0740667 14.984825,38 19.371925,38 C21.7538917,38 23.6690917,37.6941 25.2283583,37.0614 C26.715425,36.4584667 27.8376917,35.5838333 28.6603917,34.3779667 C30.1081917,32.2677 30.4039583,29.5076333 30.4039583,26.0167 L30.4039583,19.4604333 C30.4083917,18.3818667 30.013825,17.3717 29.2943583,16.6155 Z M28.8655917,26.0211333 C28.8655917,29.2315 28.6128917,31.7369667 27.391825,33.5242333 C26.012425,35.5369667 23.4632583,36.4755667 19.3763583,36.4755667 C15.400925,36.4755667 13.6484917,35.7067 12.110125,34.4628333 C12.0803583,34.4413 12.0543917,34.4204 12.0201917,34.3995 C11.8467539,34.294963 11.6858898,34.1708618 11.5407583,34.0296333 L2.23519165,24.871 C0.997025,23.6442333 1.635425,21.9114333 2.48345835,21.071 C2.88625835,20.672 3.54619169,20.4212 4.244125,20.4041 L4.33025835,20.4041 C5.04149169,20.4041 5.671025,20.6416 6.11245835,21.0754333 L8.139125,23.0748667 C8.361425,23.2914667 8.69139165,23.3598667 8.978925,23.2408 C9.265825,23.1217333 9.453925,22.8456 9.453925,22.5359 L9.453925,9.7964 C9.453925,8.36063335 10.6496583,7.1041 12.0163917,7.1041 C13.3444917,7.1041 14.4667583,8.3353 14.4667583,9.79576665 L14.4667583,11.4057 C14.4540917,11.4652333 14.445225,11.5241333 14.445225,11.5881 L14.445225,19.0234333 C14.445225,19.4439667 14.7922917,19.7878667 15.216625,19.7878667 C15.6409583,19.7878667 15.9873917,19.4439667 15.9873917,19.0234333 L15.9873917,13.7667667 C16.274925,13.6179333 16.561825,13.4944333 16.810725,13.4944333 C17.838625,13.4944333 18.699325,14.1024333 19.0894583,15.0872667 L19.0894583,20.4199333 C19.0894583,20.8404667 19.436525,21.185 19.860225,21.185 C20.2845583,21.185 20.631625,20.8404667 20.631625,20.4205667 L20.631625,15.4185 C20.9493676,15.2864696 21.2901098,15.2186655 21.6341917,15.219 C22.6620917,15.219 23.523425,15.8257333 23.9135583,16.8112 L23.9135583,21.8639333 C23.9135583,22.2844667 24.260625,22.6283667 24.684325,22.6283667 C25.1086583,22.6283667 25.455725,22.2844667 25.455725,21.8639333 L25.455725,17.138 C25.7441881,17.0093024 26.0569325,16.9440753 26.3727917,16.9467333 L26.4582917,16.9467333 C27.1264583,16.9467333 27.7388917,17.2019667 28.1809583,17.6687333 C28.6261917,18.1361333 28.8744583,18.7726333 28.8744583,19.4610667 L28.8744583,26.0211333 L28.8655917,26.0211333 Z M4.99019165,8.417 C4.78645069,8.41817882 4.59061348,8.33824198 4.44589244,8.19482794 C4.30117139,8.05141389 4.21946122,7.85630993 4.21879165,7.65256665 C4.21879165,3.43076665 7.68059165,0 11.939125,0 C16.1976583,0 19.6594583,3.43076665 19.6594583,7.65193335 C19.6594583,8.07246669 19.3123917,8.41636669 18.8880583,8.41636665 C18.463725,8.41636665 18.1166583,8.07246665 18.1166583,7.65193335 C18.1166583,4.27626669 15.3451917,1.52886669 11.939125,1.52886665 C8.53305835,1.52886665 5.76095835,4.27626665 5.76095835,7.65193335 C5.76095835,8.07246669 5.41389169,8.41636669 4.99019165,8.41636665 L4.99019165,8.417 Z" id="形状"></path>
                </g>
            </g>
        </g>
    </g>
</svg>