<?xml version="1.0" encoding="UTF-8"?>
<svg width="38px" height="38px" viewBox="0 0 38 38" version="1.1" xmlns="http://www.w3.org/2000/svg" xmlns:xlink="http://www.w3.org/1999/xlink">
    <!-- Generator: Sketch 52.2 (67145) - http://www.bohemiancoding.com/sketch -->
    <title>专辑</title>
    <desc>Created with Sketch.</desc>
    <g id="总览" stroke="none" stroke-width="1" fill="none" fill-rule="evenodd">
        <g id="用户管理-用户主页" transform="translate(-975.000000, -292.000000)" fill="#DEDEDE" fill-rule="nonzero">
            <g id="分组" transform="translate(270.000000, 110.000000)">
                <g id="分组-9" transform="translate(19.000000, 153.000000)">
                    <g id="分组-8-copy-5" transform="translate(618.000000, 0.000000)">
                        <g id="专辑" transform="translate(68.000000, 29.000000)">
                            <path d="M35.6987193,37.9769461 L2.31798051,37.9769461 C1.060765,37.9769461 0.0418052954,36.7021806 0.0418052954,35.1293461 L0.0418052954,24.4515784 L7.47654808,0.0108988452 L30.5401951,0.0108988452 L37.9748945,24.4515784 L37.9748945,35.1293461 C37.9748945,36.7021806 36.9559348,37.9769461 35.6987193,37.9769461 Z M28.871364,1.90984121 L9.14533575,1.90984121 L3.07631546,23.7404648 L8.10279321,23.7389462 L12.9393513,32.2817461 L25.0773485,32.2817461 L29.5341539,23.7389462 L34.940341,23.7404648 L28.871364,1.90984121 Z M9.12526433,20.8928106 L9.55807836,18.9939225 L28.4585781,18.9939225 L28.8913921,20.8928106 L9.12526433,20.8928106 Z M10.6407637,14.2474887 L27.3759794,14.2474887 L27.8087934,16.1463768 L10.2079496,16.1463768 L10.6407637,14.2474887 Z M11.7246195,9.50246491 L26.2932941,9.50246491 L26.7261081,11.401353 L11.2905916,11.401353 L11.7246195,9.50246491 Z M12.806091,4.75744116 L25.2106088,4.75744116 L25.6434228,6.65486495 L12.3732336,6.65486495 L12.806091,4.75744116 Z" id="形状"></path>
                        </g>
                    </g>
                </g>
            </g>
        </g>
    </g>
</svg>