<?xml version="1.0" encoding="UTF-8"?>
<svg width="38px" height="35px" viewBox="0 0 38 35" version="1.1" xmlns="http://www.w3.org/2000/svg" xmlns:xlink="http://www.w3.org/1999/xlink">
    <!-- Generator: Sketch 52.2 (67145) - http://www.bohemiancoding.com/sketch -->
    <title>关注</title>
    <desc>Created with Sketch.</desc>
    <g id="总览" stroke="none" stroke-width="1" fill="none" fill-rule="evenodd">
        <g id="分组-9" transform="translate(-327.000000, -33.000000)" fill="#B9D9F3" fill-rule="nonzero">
            <g id="分组-8-copy-2" transform="translate(258.000000, 0.000000)">
                <g id="关注" transform="translate(69.000000, 33.000000)">
                    <path d="M22.4045661,29.5104135 L21.7103625,28.811082 C21.3948087,28.4932244 20.88993,28.4932244 20.5744133,28.811082 L20.5112803,28.8746239 C20.2588595,29.1925187 20.0694975,29.4468346 19.8170767,29.6375343 L19.7539808,29.7011133 L18.9966814,30.4639866 C18.8073194,30.6547235 18.6179945,30.7818814 18.4917655,30.9726183 L18.3024407,30.7818814 C17.9868869,30.4640237 17.671333,30.1461289 17.4189123,29.8282712 C17.1033585,29.5104135 16.7878046,29.1925187 16.5353467,28.874661 C15.9673721,28.2389085 15.3362645,27.539577 14.705194,26.9038617 C14.3265443,26.458846 13.9478946,26.0137933 13.5692077,25.6959356 C13.1274249,25.187341 12.6856793,24.7423254 12.2438965,24.2972727 C11.8021137,23.8522942 11.3603681,23.4072786 10.9185853,22.898684 C10.4768397,22.3900895 10.0350569,21.9450738 9.59327412,21.5000211 C8.64664981,20.5464109 7.7631214,19.6563796 6.87955586,18.7027694 C6.6271351,18.4484536 6.37467717,18.1941749 6.18535231,17.9398962 L5.42805285,17.1769857 C5.11249904,16.8591281 4.92317415,16.6048122 4.67075342,16.3505335 C4.4813914,16.0962176 4.35516245,15.7783599 4.22893347,15.524044 L4.10274169,15.2061864 L3.53472992,14.0618393 L3.47163405,13.9346813 C3.40853814,13.8075606 3.3454051,13.7439816 3.34540506,13.5532447 C3.28230916,13.298966 3.21921325,13.1082291 3.15608021,12.9174922 C3.02985126,12.7267925 2.96675535,12.5996345 2.96675535,12.5360556 L2.96675535,12.3453186 C2.90365944,11.7731823 2.8405264,11.2645877 2.8405264,10.7559931 C2.8405264,10.5016773 2.8405264,10.1202034 2.90365944,9.86592473 L2.90365944,9.67522499 C2.96675535,9.35733015 3.02985126,8.97589351 3.15608021,8.59445689 C3.21921328,8.40371999 3.28230916,8.14944126 3.40853814,7.89512541 L3.40853814,7.8315836 C3.59786299,7.32295186 3.78718785,6.87793627 3.97651271,6.49649958 C4.35516242,5.92432603 4.67071626,5.41573146 5.17563208,4.97071586 C5.5542818,4.58927922 5.93293154,4.27138439 6.31158126,3.95352672 C6.62713506,3.699248 7.00578481,3.57209007 7.38443452,3.38135316 L7.4475676,3.31781135 C7.57375941,3.25419524 7.63689245,3.19065342 7.88931322,3.12707444 L8.14177115,3.0634955 C8.45732495,2.93633757 8.77284163,2.87275859 9.08839543,2.80917961 C9.40394923,2.7456378 9.65640716,2.80917961 9.971961,2.80917961 L10.4768397,2.80917961 C10.6661646,2.80917961 10.9817184,2.80917961 11.1710432,2.87275859 L11.2341391,2.87275859 C11.6759219,2.99991652 11.9914386,3.12707444 12.4332585,3.25419524 C12.6225462,3.31777422 12.8119082,3.38135316 12.9381,3.44493214 L13.064329,3.50847393 C13.3167498,3.63566902 13.6323036,3.76278978 13.8847615,3.95352672 C14.0109905,4.01706853 14.1371823,4.08068464 14.2003153,4.14426362 C14.9576148,4.58927925 15.6518183,5.22503175 16.2829259,5.86074709 C16.6615757,6.30576271 17.0402254,6.75077831 17.3557792,7.19583106 C17.4820082,7.38653081 17.671333,7.57726771 17.797562,7.76796745 L17.8606579,7.83154643 C17.9868868,7.95870436 18.1762117,8.14944126 18.5548614,8.14944126 C18.7442235,8.14944126 18.9335112,8.02228334 19.1228732,7.83154643 C19.2491021,7.70442567 19.3752939,7.57726771 19.5015229,7.38653081 C20.0694975,6.56007856 20.8268341,5.79716811 21.4579417,5.22499459 C21.7734584,4.90713692 22.1521453,4.6528582 22.530795,4.33496336 C22.7201199,4.2078426 22.8463488,4.08068464 22.9725778,4.01710566 C23.3512275,3.76278981 23.7929731,3.50851109 24.2347559,3.31777418 C24.2978518,3.31777418 24.4240808,3.25423237 24.5503097,3.2542324 C24.6765387,3.19065342 24.8027305,3.19065342 24.8658635,3.19065342 C24.9920925,3.12707444 25.1182843,3.12707444 25.2445133,3.0634955 C25.5600671,2.99991652 25.8124878,2.87275859 26.0649458,2.87275859 C27.1377991,2.80921678 28.2106895,2.74560066 29.0942179,3.12707444 C29.2835427,3.2541952 29.4728676,3.31777418 29.7253255,3.44493214 C29.9146504,3.50847396 30.1039752,3.63566905 30.2933001,3.699248 C31.0505996,4.08068464 31.6186113,4.71643714 32.1865859,5.28857353 C32.6283687,5.73358916 32.9438853,6.36934166 33.2594763,6.94151521 L33.3856681,7.13225212 L33.5118971,7.25937288 C33.5118971,7.32295186 33.574993,7.45010979 33.638126,7.51368877 L33.7012219,7.57723055 C33.8274509,7.8315464 33.8905468,8.08586228 33.9536798,8.27656203 C34.0167757,8.46729893 34.0167757,8.65803584 34.0798716,8.84873558 C34.1430047,8.97589351 34.1430047,9.16663041 34.2061006,9.29375121 C34.2692337,9.67522502 34.2692337,10.1202406 34.2692337,10.5652562 C34.2692337,11.2010087 34.7109793,11.4552874 35.089629,11.4552874 L36.3518443,11.4552874 C36.856723,11.4552874 37.1722768,11.1374298 37.1722768,10.6288352 L37.1722768,10.2473985 C37.1722768,10.1202406 37.1722768,9.92950371 37.1091437,9.73880396 C37.0460478,9.48448811 37.0460478,9.23020939 36.9829519,8.97593067 C36.9198189,8.72161482 36.9198189,8.46729893 36.856723,8.27659919 L36.856723,8.08586228 L36.7935899,8.02228334 C36.730494,7.89512541 36.730494,7.76796749 36.6673981,7.64084669 C36.4149402,7.45010979 36.4149402,7.25937288 36.3518443,7.13225212 C36.2887112,6.87793627 36.2256153,6.62365754 36.0993864,6.36937882 C35.9731946,6.05148399 35.7838326,5.60646836 35.5314118,5.22503175 C35.4051828,5.03429484 35.215858,4.77997899 35.089629,4.58924205 C34.9634372,4.33496333 34.7741123,4.14426359 34.5847503,3.88994774 C34.0798716,3.19061626 33.4488012,2.61847987 32.8176935,2.1098853 C32.3128148,1.66486967 31.7448403,1.347012 31.2399244,1.09269615 L30.9875036,0.965538223 L30.8612747,0.901959244 C30.7981788,0.901959244 30.7350829,0.838417428 30.6719498,0.838417428 C30.6088539,0.774801318 30.482625,0.774801318 30.356396,0.711222338 C30.2933001,0.711222338 30.1670711,0.647680522 30.0408422,0.647680522 C29.8515173,0.520522596 29.5990966,0.456943617 29.4728676,0.39336467 L29.2204468,0.329822855 C28.8417971,0.202627764 28.3999772,0.0755070026 27.9582316,0.0755070026 C27.0116072,0.0118908584 26.1911747,-0.0516509569 25.2445133,0.202627764 L25.0551884,0.266206744 C24.9920925,0.266206744 24.7396346,0.266206744 24.4872138,0.39336467 C24.0454311,0.520522596 23.7299144,0.647680522 23.3512275,0.774801318 L23.0356737,0.901959244 C22.7201199,1.02911717 22.3414701,1.1562751 21.9628204,1.41055382 L20.8268341,2.17342711 C20.2588595,2.49132194 19.8170767,2.93633757 19.3752939,3.31777418 C19.1228732,3.57209004 18.8073194,3.82636876 18.5548614,4.14426362 L18.4917655,4.20780541 L17.923791,3.63566905 C17.5451413,3.25419524 17.1033213,2.87279576 16.6615757,2.49132194 C16.0936011,2.04630632 15.5256265,1.6648697 15.0838066,1.41055382 C14.7051568,1.21981691 14.3896402,1.02911717 14.0740864,0.901959244 C13.8847615,0.838417428 13.6954367,0.774801318 13.4429787,0.647680522 C12.9381,0.456943617 12.3701255,0.32978569 11.8652096,0.266206744 C11.6759219,0.266206744 11.5496929,0.202664929 11.3603681,0.202664929 C10.9817184,0.139085949 10.5399356,0.139085949 10.2874777,0.139085949 C9.53017822,0.0755069692 8.77287879,0.139085949 7.82621731,0.39336467 C7.25824274,0.520522596 6.81645995,0.711222338 6.31158126,0.965538223 C6.1222564,1.09269615 5.93293154,1.15627513 5.74360669,1.28339589 C5.55424467,1.34697487 5.42805288,1.4741328 5.23872799,1.53771174 L5.11249904,1.60125356 C4.9862701,1.72841148 4.79694524,1.79199046 4.67071626,1.91914839 C4.4813914,2.04630632 4.35516245,2.17346424 4.16583756,2.30058504 C3.72409194,2.61847987 3.28230916,2.99991652 2.90365944,3.50851109 C2.52500973,3.95352672 2.14635998,4.46212129 1.76767314,4.97071586 C1.51525237,5.41573149 1.26279444,5.79716811 1.07346959,6.17864192 C0.947240639,6.43292064 0.821011657,6.68723649 0.757915748,6.94151521 L0.568590892,7.51368877 C0.316132962,8.08586232 0.189941179,8.84873561 0.0637122304,9.67522499 C0.0006163219,10.4380983 0.0006163219,11.2009716 0.0006163219,12.027461 C0.0637122304,12.6632135 0.126808139,13.298966 0.253037087,13.8711024 C0.316132996,14.3161552 0.505495017,14.6975918 0.568590892,15.0154495 L0.6316868,15.2697654 C0.757915748,15.587623 0.88414473,15.9690968 1.01033651,16.3505335 L1.07346959,16.4140753 C1.1365655,16.4776542 1.1365655,16.5412332 1.19969853,16.6048122 C1.26279444,16.7319701 1.32589035,16.7955491 1.38902339,16.9226699 C1.51525234,17.3041437 1.7045772,17.5584595 1.89390209,17.8127382 C1.95699799,17.939859 2.08322694,18.0670169 2.14632285,18.1941749 C2.2725518,18.4484536 2.46187666,18.7027694 2.65120151,18.9570482 C3.0929843,19.4656427 3.53472992,19.9106955 3.97651271,20.3557111 C4.41829549,20.8007268 4.79694521,21.2457423 5.23872799,21.690758 C5.68047361,22.1357736 6.05912333,22.5807892 6.50090611,23.0258048 C6.87955583,23.4708204 7.25820557,23.8522942 7.63685529,24.2337308 C8.01554217,24.6151675 8.39419188,24.9966041 8.77284163,25.4416569 L9.971961,26.6495458 C10.3506107,27.0945614 10.7923563,27.4760352 11.1710432,27.9210508 C11.3603681,28.1117506 11.6127888,28.3660664 11.8021137,28.6203823 C12.0545717,28.874661 12.2439337,29.1289397 12.4963544,29.3832556 L13.2536539,30.1461289 L13.6323036,30.5276027 L16.2829259,33.1976964 C16.8509005,33.5155912 17.3557792,33.9605697 18.1131158,34.1513065 L18.3655366,34.1513065 C18.4917655,34.1513065 18.6179945,34.2148855 18.6810904,34.2148855 L18.8073194,34.2148855 C19.5015229,34.1513437 20.1326306,33.8334489 20.5112803,33.4520122 C21.0792549,32.9434176 21.7103997,32.3076651 22.2152412,31.7990705 C22.3414701,31.6719126 22.4676991,31.4812129 22.5938909,31.3540549 L22.9725406,30.9726183 L23.4774565,30.4640237 L22.9725778,30.0190081 C22.7832158,29.8282712 22.5939281,29.6375343 22.4045661,29.5104135 Z M37.1722768,19.5928007 L31.8079362,19.5928007 L31.8079362,14.1889972 C31.8079362,13.5532447 31.3661534,13.3625078 30.9875036,13.3625078 L30.1039753,13.3625078 C29.2835428,13.3625078 29.0310848,13.6168237 29.0310848,14.443276 L29.0310848,19.6563796 L23.6036483,19.6563796 C23.2249986,19.6563796 22.7832158,19.9742373 22.7832158,20.4192529 L22.7832158,21.690758 C22.7832158,22.1357736 23.0987696,22.4536313 23.5405524,22.4536312 L28.904893,22.4536312 L28.904893,27.9210508 C28.904893,28.1117506 28.9679889,28.811082 29.8515173,28.811082 L30.7981788,28.811082 C31.4923823,28.811082 31.7448402,28.5567662 31.7448403,27.8574719 L31.7448403,22.4536684 L37.1722768,22.4536684 C37.6771555,22.4536684 37.9927093,22.1357736 37.9927093,21.627179 L37.9927093,20.4192901 C37.9927093,19.9106955 37.6771555,19.5928007 37.1722396,19.5928007 L37.1722768,19.5928007 Z" id="形状"></path>
                </g>
            </g>
        </g>
    </g>
</svg>