<?xml version="1.0" encoding="UTF-8"?>
<svg width="38px" height="38px" viewBox="0 0 38 38" version="1.1" xmlns="http://www.w3.org/2000/svg" xmlns:xlink="http://www.w3.org/1999/xlink">
    <!-- Generator: Sketch 52.2 (67145) - http://www.bohemiancoding.com/sketch -->
    <title>专辑</title>
    <desc>Created with Sketch.</desc>
    <g id="总览" stroke="none" stroke-width="1" fill="none" fill-rule="evenodd">
        <g id="分组-9" transform="translate(-686.000000, -29.000000)" fill="#B9D9F3" fill-rule="nonzero" stroke="#B9D9F3" stroke-width="2">
            <g id="分组-8-copy-5" transform="translate(618.000000, 0.000000)">
                <g id="专辑" transform="translate(68.000000, 29.000000)">
                    <path d="M36.9748945,24.6003106 L29.7991453,1.01089885 L8.21759658,1.01089885 L1.0418053,24.6003114 L1.0418053,35.1293461 C1.0418053,36.192937 1.66848818,36.9769461 2.31798051,36.9769461 L35.6987193,36.9769461 C36.3482116,36.9769461 36.9748945,36.192937 36.9748945,35.1293461 L36.9748945,24.6003106 Z M30.1402689,24.7391165 L25.6835524,33.2817461 L12.356363,33.2817461 L7.51990467,24.7391223 L1.76027578,24.7408624 L8.38541641,0.909841205 L29.6312848,0.909841205 L36.2563704,24.7408345 L30.1402689,24.7391165 Z M10.3788418,19.8928106 L10.5330725,19.2161531 L9.68482997,19.8928106 L9.12526433,19.8928106 L10.1002585,21.1150412 L10.3557953,19.9939225 L27.6608611,19.9939225 L27.916398,21.1150412 L28.8913921,19.8928106 L28.3318264,19.8928106 L27.4835839,19.2161531 L27.6378146,19.8928106 L10.3788418,19.8928106 Z M11.4384806,15.2474887 L26.5782624,15.2474887 L26.8337993,16.3686074 L27.8087934,15.1463768 L27.2492278,15.1463768 L26.4009853,14.4697193 L26.555216,15.1463768 L11.4615271,15.1463768 L11.6157578,14.4697193 L10.7675153,15.1463768 L10.2079496,15.1463768 L11.1829437,16.3686074 L11.4384806,15.2474887 Z M12.5218395,10.5024649 L25.4955772,10.5024649 L25.751114,11.6235837 L26.7261081,10.401353 L26.1665425,10.401353 L25.3183,9.72469556 L25.4725307,10.401353 L12.5449506,10.401353 L12.6994784,9.72528791 L11.8514501,10.401353 L11.2905916,10.401353 L12.2654506,11.624176 L12.5218395,10.5024649 Z M13.6036534,5.75744116 L24.4130286,5.75744116 L24.6684659,6.87725863 L25.6434228,5.65486495 L25.0819995,5.65486495 L24.2356518,4.97983483 L24.3896304,5.65486495 L13.627054,5.65486495 L13.7810432,4.97985602 L12.9347032,5.65486495 L12.3732336,5.65486495 L13.3481857,6.87727981 L13.6036534,5.75744116 Z" id="形状"></path>
                </g>
            </g>
        </g>
    </g>
</svg>