<?xml version="1.0" encoding="UTF-8"?>
<svg width="40px" height="40px" viewBox="0 0 40 40" version="1.1" xmlns="http://www.w3.org/2000/svg" xmlns:xlink="http://www.w3.org/1999/xlink">
    <!-- Generator: Sketch 52.2 (67145) - http://www.bohemiancoding.com/sketch -->
    <title>树</title>
    <desc>Created with Sketch.</desc>
    <g id="总览" stroke="none" stroke-width="1" fill="none" fill-rule="evenodd">
        <g id="分组-9" transform="translate(-926.000000, -28.000000)" fill="#B9D9F3">
            <g id="分组-8-copy-7" transform="translate(858.000000, 0.000000)">
                <g id="树" transform="translate(69.000000, 29.000000)">
                    <path d="M9.5,24.3460067 L9.5,28.4189753 L8.85178648,28.4055834 C5.66361841,28.1395834 3.02724866,26.9615834 1.49447555,25.1185834 C0.186509165,23.5225834 -0.283541255,21.4325834 0.166072191,19.1335834 C0.942677233,15.1815834 2.20976967,11.6475834 3.76297975,9.17758338 C6.19497975,5.28258338 8.89266043,4.61758338 10.7115512,4.76958338 C12.5508789,4.90258338 14.2062739,5.98558338 15.6164251,7.98058338 C18.59257,11.8169029 13.9582596,11.8169029 14.3407407,19.1335834 C14.4482917,21.1909821 14.1653999,22.782444 17.1166876,26.7759603 C16.1970237,27.6499603 15.5959882,27.4745834 14.1653999,27.9115834 C13.4368445,28.11606 12.6713048,28.268961 11.875,28.3587226 L11.875,17.125 C11.875,16.8488576 11.6511424,16.625 11.375,16.625 L10,16.625 C9.72385763,16.625 9.5,16.8488576 9.5,17.125 L9.5,21.7462455 L5.77510121,20.0878137 C5.5228326,19.9754965 5.22727739,20.0889495 5.11496016,20.3412181 L4.55569728,21.5973431 C4.44338006,21.8496117 4.55683307,22.145167 4.80910169,22.2574842 L9.5,24.3460067 Z" id="合并形状" stroke="#DEDEDE" stroke-width="0.2" fill-rule="nonzero"></path>
                    <path d="M9.5,28.5 L11.875,28.5 L11.875,36.8125 C11.875,37.4683381 11.3433381,38 10.6875,38 L10.6875,38 C10.0316619,38 9.5,37.4683381 9.5,36.8125 L9.5,28.5 Z" id="矩形"></path>
                    <path d="M34.1233613,17.632 C34.1233613,18.981 35.5539496,20.995 37.638521,22.61 C37.9246387,22.819 38.0268235,23.161 37.9450756,23.465 C37.3115294,25.954 35.5335126,27.911 32.815395,29.127 C31.0169412,29.925 28.8506218,30.362 26.5616807,30.419 L26.5616807,37.145 C26.5616807,37.62 26.1529412,38 25.6420168,38 C25.1310924,38 24.7223529,37.62 24.7223529,37.145 L24.7223529,30.381 L24.5792941,30.381 C21.9224874,30.172 19.5926723,29.507 17.7329076,28.424 C16.1800648,27.3514133 14.9592014,26.5520155 13.8222114,24.3795709 C12.5450337,21.9143745 14.2222222,14.649 15.6278992,10.507 C16.3227563,8.683 17.1402353,7.049 17.9985882,5.662 C20.4714622,1.71 23.5370084,-0.209 26.8069244,0.019 C33.1423866,0.494 36.0853109,9.728 37.0867227,13.699 C37.1684706,14.06 37.0049748,14.44 36.6575462,14.649 C35.0225882,15.561 34.1233613,16.606 34.1233613,17.632 Z M26.5821176,28.709 C30.6899496,28.614 34.7773445,27.056 35.9831261,23.579 C33.6533109,21.679 32.2635966,19.437 32.2635966,17.67 C32.2635966,16.131 33.2445714,14.725 35.1043361,13.528 C33.2036975,6.403 30.0972773,2.014 26.6434286,1.748 L26.2346891,1.748 C20.5123361,1.748 16.7110588,10.887 15.1578487,18.867 C14.6877983,21.356 15.1374118,23.484 16.4862521,25.137 C16.9358655,25.669 17.4672269,26.144 18.0803361,26.562 C18.1007731,26.562 18.1007731,26.581 18.1212101,26.581 L18.1416471,26.6 C19.817479,27.74 22.0655462,28.462 24.7223529,28.652 L24.7223529,25.194 C24.5588571,25.156 24.3953613,25.061 24.2931765,24.928 L20.1035966,20.254 C19.776605,19.893 19.837916,19.361 20.2466555,19.038 C20.634958,18.734 21.2071933,18.791 21.5546218,19.171 L24.7427899,22.724 L24.7427899,10.146 C24.7427899,9.671 25.1515294,9.291 25.6624538,9.291 C26.1733782,9.291 26.5821176,9.671 26.5821176,10.146 L26.5821176,16.245 L30.1585882,12.483 C30.5060168,12.141 31.0782521,12.084 31.4665546,12.407 C31.8344202,12.73 31.8957311,13.262 31.5483025,13.623 L26.8886723,18.525 C26.8069244,18.62 26.7047395,18.677 26.5821176,18.734 L26.5821176,28.709 Z" id="合并形状" stroke="#DEDEDE" stroke-width="0.2" fill-rule="nonzero"></path>
                </g>
            </g>
        </g>
    </g>
</svg>