<?xml version="1.0" encoding="UTF-8"?>
<svg width="45px" height="39px" viewBox="0 0 45 39" version="1.1" xmlns="http://www.w3.org/2000/svg" xmlns:xlink="http://www.w3.org/1999/xlink">
    <!-- Generator: Sketch 52.2 (67145) - http://www.bohemiancoding.com/sketch -->
    <title>好友</title>
    <desc>Created with Sketch.</desc>
    <g id="总览" stroke="none" stroke-width="1" fill="none" fill-rule="evenodd">
        <g id="用户管理-用户主页" transform="translate(-370.000000, -292.000000)" fill="#B9D9F3" fill-rule="nonzero">
            <g id="分组" transform="translate(270.000000, 110.000000)">
                <g id="分组-9" transform="translate(19.000000, 153.000000)">
                    <g id="分组-8" transform="translate(18.000000, 0.000000)">
                        <g id="好友" transform="translate(63.000000, 29.000000)">
                            <path d="M27.0112879,22.2250562 C20.8242591,22.2250562 15.7899565,17.2399913 15.7899565,11.1125034 C15.7899565,4.9850155 20.8242591,0 27.0112879,0 C33.197519,0 38.2318216,4.9850155 38.2318216,11.1125528 C38.2318216,17.2400901 33.197519,22.2250068 27.0112879,22.2250068 L27.0112879,22.2250562 Z M27.0112879,2.1222424 C22.0033605,2.1222424 17.9328208,6.15276976 17.9328208,11.1125528 C17.9328208,16.0699163 22.0032607,20.1028138 27.0112879,20.1028138 C32.0152766,20.1028138 36.0890072,16.0699163 36.0890072,11.1125528 C36.0889075,6.15272038 32.0152766,2.1222424 27.0112879,2.1222424 Z M43.9277452,39 C43.3354274,39 42.8571357,38.5247311 42.8571357,37.9381134 C42.8571357,33.7575739 41.2133042,29.8218041 38.2317718,26.857953 C37.8140581,26.4442098 37.8140581,25.7723647 38.2317718,25.3586709 C38.6535739,24.9441376 39.3303518,24.9441376 39.7481154,25.3618311 C43.1360935,28.7236242 45,33.1914978 45,37.9380641 C45,38.5247311 44.5200132,39 43.9277452,39 Z M26.9307666,22.2432275 C18.2732041,22.2463878 11.1662379,29.2873302 11.1662379,37.9381134 C11.1662379,38.5247311 10.6863508,39 10.0940329,39 C9.50171513,39 9.02337362,38.5247311 9.02337362,37.9381134 C9.02337362,28.1164651 17.0909617,20.124096 27.0112879,20.124096 C27.0447928,20.124096 27.0918093,20.1264662 27.1252642,20.1288363 C27.6944478,20.1809307 28.1337501,20.6665692 28.1066272,21.2357562 C28.0810997,21.8350147 27.533455,22.3031731 26.9307666,22.2432275 Z M14.6061685,4.38812711 C10.7174125,4.38812711 7.55574169,7.73253897 7.55574169,11.8451829 C7.55574169,15.959407 10.7174125,19.3061397 14.6061685,19.3061397 C15.1976886,19.3061397 15.6759802,19.7790384 15.6759802,20.364866 C15.6759802,20.9514836 15.1976886,21.4283821 14.6061685,21.4283821 C9.53517012,21.4283821 5.41372502,17.1301734 5.41372502,11.8451829 C5.41372502,6.56404403 9.53517012,2.26588471 14.6061186,2.26588471 C15.1976886,2.26588471 15.6759802,2.7396229 15.6759802,3.32619116 C15.6759802,3.91275943 15.1976886,4.38812711 14.6061685,4.38812711 Z M14.6061685,21.4354926 C7.73353676,21.4354926 2.14281441,27.3284816 2.14281441,34.5731601 C2.14281441,35.1597777 1.66292729,35.6350466 1.07060947,35.6350466 C0.478291652,35.6350466 0,35.1597777 0,34.5731601 C0,26.1591966 6.55129432,19.3132502 14.6061685,19.3132502 C15.1976886,19.3132502 15.6759802,19.7869884 15.6759802,20.3735566 C15.6759802,20.9601249 15.1976886,21.4354926 14.6061685,21.4354926 Z" id="形状"></path>
                        </g>
                    </g>
                </g>
            </g>
        </g>
    </g>
</svg>