<?xml version="1.0" encoding="UTF-8"?>
<svg width="38px" height="38px" viewBox="0 0 38 38" version="1.1" xmlns="http://www.w3.org/2000/svg" xmlns:xlink="http://www.w3.org/1999/xlink">
    <!-- Generator: Sketch 52.2 (67145) - http://www.bohemiancoding.com/sketch -->
    <title>文章 (2)</title>
    <desc>Created with Sketch.</desc>
    <g id="总览" stroke="none" stroke-width="1" fill="none" fill-rule="evenodd">
        <g id="分组-9" transform="translate(-807.000000, -30.000000)" fill="#B9D9F3" fill-rule="nonzero">
            <g id="分组-8-copy-6" transform="translate(738.000000, 0.000000)">
                <g id="文章-(2)" transform="translate(69.000000, 30.000000)">
                    <path d="M34.4443636,0.00945454545 L8.28581818,0.00945454545 C6.33090909,0.00945454545 4.74836364,1.592 4.74836364,3.54690909 L4.74836364,5.96727273 L3.53818182,5.96727273 C1.58327273,5.96727273 0.000727272727,7.54981818 0.000727272727,9.50472727 L0.000727272727,33.2429091 C0.000727272727,35.8494545 2.14181818,37.9905455 4.74836364,37.9905455 L33.2341818,37.9905455 C35.8407273,37.9905455 37.9818182,35.8494545 37.9818182,33.2429091 L37.9818182,3.54690909 C37.9818182,1.592 36.3992727,0.00945454545 34.4443636,0.00945454545 Z M35.6545455,33.2429091 C35.6545455,34.5461818 34.6305455,35.6632727 33.2341818,35.6632727 L4.74836364,35.6632727 C3.44509091,35.6632727 2.328,34.6392727 2.328,33.2429091 L2.328,9.50472727 C2.328,8.85309091 2.88654545,8.29454545 3.53818182,8.29454545 L4.74836364,8.29454545 L4.74836364,32.0327273 C4.74836364,32.6843636 5.30690909,33.2429091 5.95854545,33.2429091 C6.61018182,33.2429091 7.16872727,32.6843636 7.16872727,32.0327273 L7.16872727,3.54690909 C7.16872727,2.89527273 7.72727273,2.33672727 8.37890909,2.33672727 L34.5374545,2.33672727 C35.1890909,2.33672727 35.7476364,2.89527273 35.7476364,3.54690909 L35.7476364,33.2429091 L35.6545455,33.2429091 Z" id="形状"></path>
                    <path d="M23.1803636,15.4625455 L32.6756364,15.4625455 C33.048,15.4625455 33.2341818,15.1832727 33.2341818,14.904 C33.2341818,14.5316364 32.9549091,14.3454545 32.6756364,14.3454545 L23.1803636,14.3454545 C22.808,14.3454545 22.6218182,14.6247273 22.6218182,14.904 C22.6218182,15.1832727 22.808,15.4625455 23.1803636,15.4625455 Z M23.1803636,11.832 L32.6756364,11.832 C33.048,11.832 33.2341818,11.5527273 33.2341818,11.2734545 C33.2341818,10.9010909 32.9549091,10.7149091 32.6756364,10.7149091 L23.1803636,10.7149091 C22.808,10.7149091 22.6218182,10.9941818 22.6218182,11.2734545 C22.6218182,11.6458182 22.808,11.832 23.1803636,11.832 Z M23.1803636,8.29454545 L32.6756364,8.29454545 C33.048,8.29454545 33.2341818,8.01527273 33.2341818,7.736 C33.2341818,7.36363636 32.9549091,7.17745455 32.6756364,7.17745455 L23.1803636,7.17745455 C22.808,7.17745455 22.6218182,7.45672727 22.6218182,7.736 C22.6218182,8.01527273 22.808,8.29454545 23.1803636,8.29454545 Z M19.6429091,32.0327273 L10.1476364,32.0327273 C9.77527273,32.0327273 9.58909091,32.312 9.58909091,32.5912727 C9.58909091,32.9636364 9.86836364,33.1498182 10.1476364,33.1498182 L19.6429091,33.1498182 C20.0152727,33.1498182 20.2014545,32.8705455 20.2014545,32.5912727 C20.2014545,32.312 19.9221818,32.0327273 19.6429091,32.0327273 Z M19.6429091,28.4952727 L10.1476364,28.4952727 C9.77527273,28.4952727 9.58909091,28.7745455 9.58909091,29.0538182 C9.58909091,29.4261818 9.86836364,29.6123636 10.1476364,29.6123636 L19.6429091,29.6123636 C20.0152727,29.6123636 20.2014545,29.3330909 20.2014545,29.0538182 C20.2014545,28.7745455 19.9221818,28.4952727 19.6429091,28.4952727 Z M19.6429091,24.9578182 L10.1476364,24.9578182 C9.77527273,24.9578182 9.58909091,25.2370909 9.58909091,25.5163636 C9.58909091,25.8887273 9.86836364,26.0749091 10.1476364,26.0749091 L19.6429091,26.0749091 C20.0152727,26.0749091 20.2014545,25.7956364 20.2014545,25.5163636 C20.2014545,25.2370909 19.9221818,24.9578182 19.6429091,24.9578182 Z M32.6756364,32.0327273 L23.1803636,32.0327273 C22.808,32.0327273 22.6218182,32.312 22.6218182,32.5912727 C22.6218182,32.9636364 22.9010909,33.1498182 23.1803636,33.1498182 L32.6756364,33.1498182 C33.048,33.1498182 33.2341818,32.8705455 33.2341818,32.5912727 C33.2341818,32.312 33.048,32.0327273 32.6756364,32.0327273 Z M32.6756364,28.4952727 L23.1803636,28.4952727 C22.808,28.4952727 22.6218182,28.7745455 22.6218182,29.0538182 C22.6218182,29.4261818 22.9010909,29.6123636 23.1803636,29.6123636 L32.6756364,29.6123636 C33.048,29.6123636 33.2341818,29.3330909 33.2341818,29.0538182 C33.2341818,28.7745455 33.048,28.4952727 32.6756364,28.4952727 Z M32.6756364,24.9578182 L23.1803636,24.9578182 C22.808,24.9578182 22.6218182,25.2370909 22.6218182,25.5163636 C22.6218182,25.8887273 22.9010909,26.0749091 23.1803636,26.0749091 L32.6756364,26.0749091 C33.048,26.0749091 33.2341818,25.7956364 33.2341818,25.5163636 C33.2341818,25.2370909 33.048,24.9578182 32.6756364,24.9578182 Z M32.6756364,17.7898182 L10.1476364,17.7898182 C9.77527273,17.7898182 9.58909091,18.0690909 9.58909091,18.3483636 C9.58909091,18.7207273 9.86836364,18.9069091 10.1476364,18.9069091 L32.6756364,18.9069091 C33.048,18.9069091 33.2341818,18.6276364 33.2341818,18.3483636 C33.2341818,18.0690909 33.048,17.7898182 32.6756364,17.7898182 Z M32.6756364,21.4203636 L10.1476364,21.4203636 C9.77527273,21.4203636 9.58909091,21.6996364 9.58909091,21.9789091 C9.58909091,22.3512727 9.86836364,22.5374545 10.1476364,22.5374545 L32.6756364,22.5374545 C33.048,22.5374545 33.2341818,22.2581818 33.2341818,21.9789091 C33.2341818,21.6065455 33.048,21.4203636 32.6756364,21.4203636 Z M10.7061818,15.4625455 L18.9912727,15.4625455 C19.6429091,15.4625455 20.2014545,14.904 20.2014545,14.2523636 L20.2014545,5.96727273 C20.2014545,5.31563636 19.6429091,4.75709091 18.9912727,4.75709091 L10.7061818,4.75709091 C10.0545455,4.75709091 9.496,5.31563636 9.496,5.96727273 L9.496,14.2523636 C9.496,14.904 10.0545455,15.4625455 10.7061818,15.4625455 Z" id="形状"></path>
                </g>
            </g>
        </g>
    </g>
</svg>